<svg width="816" height="38" viewBox="0 0 816 38" fill="none" xmlns="http://www.w3.org/2000/svg">
<path d="M0 19L814.5 18.9999" stroke="black" stroke-width="2"/>
<path d="M800.5 32.9999L814.5 18.9999L800.5 4.99994" stroke="black" stroke-width="2"/>
<rect x="631" y="37" width="193" height="36" rx="18" transform="rotate(180 631 37)" fill="white" stroke="black" stroke-width="2"/>
<path d="M476.356 25.21C475.106 25.21 474.111 24.85 473.371 24.13C472.631 23.4 472.261 22.34 472.261 20.95V18.55C472.261 17.16 472.631 16.105 473.371 15.385C474.111 14.655 475.106 14.29 476.356 14.29C477.596 14.29 478.546 14.635 479.206 15.325C479.876 16.015 480.211 16.96 480.211 18.16V18.235H478.966V18.115C478.966 17.325 478.751 16.68 478.321 16.18C477.901 15.67 477.246 15.415 476.356 15.415C475.466 15.415 474.771 15.69 474.271 16.24C473.771 16.78 473.521 17.54 473.521 18.52V20.98C473.521 21.96 473.771 22.725 474.271 23.275C474.771 23.815 475.466 24.085 476.356 24.085C477.246 24.085 477.901 23.835 478.321 23.335C478.751 22.825 478.966 22.175 478.966 21.385V21.145H480.211V21.34C480.211 22.54 479.876 23.485 479.206 24.175C478.546 24.865 477.596 25.21 476.356 25.21ZM485.758 25L488.998 14.5H491.218L494.458 25H493.153L492.343 22.345H487.873L487.063 25H485.758ZM488.188 21.205H492.013L490.213 15.265H490.003L488.188 21.205ZM501.983 25V15.64H498.608V14.5H506.618V15.64H503.243V25H501.983ZM512.721 25V14.5H519.186V15.64H513.981V19.15H518.766V20.29H513.981V23.86H519.261V25H512.721ZM529.334 25.21C528.554 25.21 527.864 25.05 527.264 24.73C526.674 24.4 526.209 23.92 525.869 23.29C525.539 22.66 525.374 21.88 525.374 20.95V18.55C525.374 17.16 525.744 16.105 526.484 15.385C527.224 14.655 528.219 14.29 529.469 14.29C530.709 14.29 531.654 14.63 532.304 15.31C532.954 15.99 533.279 16.9 533.279 18.04V18.115H532.034V18.01C532.034 17.51 531.944 17.065 531.764 16.675C531.584 16.285 531.304 15.98 530.924 15.76C530.544 15.53 530.059 15.415 529.469 15.415C528.579 15.415 527.884 15.69 527.384 16.24C526.884 16.78 526.634 17.54 526.634 18.52V20.98C526.634 21.96 526.884 22.725 527.384 23.275C527.884 23.815 528.584 24.085 529.484 24.085C530.364 24.085 531.009 23.835 531.419 23.335C531.839 22.835 532.049 22.17 532.049 21.34V21.085H528.869V20.005H533.279V25H532.139V23.86H531.929C531.819 24.08 531.664 24.295 531.464 24.505C531.264 24.715 530.994 24.885 530.654 25.015C530.314 25.145 529.874 25.21 529.334 25.21ZM543.886 25.21C542.636 25.21 541.636 24.85 540.886 24.13C540.146 23.4 539.776 22.34 539.776 20.95V18.55C539.776 17.16 540.146 16.105 540.886 15.385C541.636 14.655 542.636 14.29 543.886 14.29C545.146 14.29 546.146 14.655 546.886 15.385C547.636 16.105 548.011 17.16 548.011 18.55V20.95C548.011 22.34 547.636 23.4 546.886 24.13C546.146 24.85 545.146 25.21 543.886 25.21ZM543.886 24.085C544.796 24.085 545.501 23.815 546.001 23.275C546.501 22.725 546.751 21.965 546.751 20.995V18.505C546.751 17.535 546.501 16.78 546.001 16.24C545.501 15.69 544.796 15.415 543.886 15.415C542.986 15.415 542.286 15.69 541.786 16.24C541.286 16.78 541.036 17.535 541.036 18.505V20.995C541.036 21.965 541.286 22.725 541.786 23.275C542.286 23.815 542.986 24.085 543.886 24.085ZM554.61 25V14.5H558.855C559.505 14.5 560.075 14.615 560.565 14.845C561.065 15.065 561.455 15.385 561.735 15.805C562.015 16.215 562.155 16.71 562.155 17.29V17.455C562.155 18.145 561.99 18.69 561.66 19.09C561.33 19.49 560.94 19.76 560.49 19.9V20.11C560.85 20.12 561.145 20.24 561.375 20.47C561.615 20.69 561.735 21.025 561.735 21.475V25H560.49V21.625C560.49 21.325 560.405 21.095 560.235 20.935C560.075 20.775 559.83 20.695 559.5 20.695H555.87V25H554.61ZM555.87 19.555H558.735C559.425 19.555 559.955 19.39 560.325 19.06C560.705 18.72 560.895 18.25 560.895 17.65V17.545C560.895 16.945 560.71 16.48 560.34 16.15C559.97 15.81 559.435 15.64 558.735 15.64H555.87V19.555ZM568.573 25V14.5H569.833V25H568.573ZM575.91 25L579.15 14.5H581.37L584.61 25H583.305L582.495 22.345H578.025L577.215 25H575.91ZM578.34 21.205H582.165L580.365 15.265H580.155L578.34 21.205ZM594.134 25.21C593.374 25.21 592.694 25.075 592.094 24.805C591.494 24.535 591.019 24.13 590.669 23.59C590.329 23.04 590.159 22.355 590.159 21.535V21.22H591.404V21.535C591.404 22.405 591.659 23.055 592.169 23.485C592.679 23.905 593.334 24.115 594.134 24.115C594.954 24.115 595.579 23.93 596.009 23.56C596.439 23.19 596.654 22.725 596.654 22.165C596.654 21.775 596.554 21.465 596.354 21.235C596.164 21.005 595.894 20.82 595.544 20.68C595.194 20.53 594.784 20.4 594.314 20.29L593.534 20.095C592.924 19.935 592.384 19.74 591.914 19.51C591.444 19.28 591.074 18.98 590.804 18.61C590.544 18.23 590.414 17.745 590.414 17.155C590.414 16.565 590.559 16.055 590.849 15.625C591.149 15.195 591.564 14.865 592.094 14.635C592.634 14.405 593.254 14.29 593.954 14.29C594.664 14.29 595.299 14.415 595.859 14.665C596.429 14.905 596.874 15.265 597.194 15.745C597.524 16.215 597.689 16.81 597.689 17.53V18.16H596.444V17.53C596.444 17.02 596.334 16.61 596.114 16.3C595.904 15.99 595.609 15.76 595.229 15.61C594.859 15.46 594.434 15.385 593.954 15.385C593.264 15.385 592.709 15.54 592.289 15.85C591.869 16.15 591.659 16.58 591.659 17.14C591.659 17.51 591.749 17.81 591.929 18.04C592.109 18.27 592.364 18.46 592.694 18.61C593.024 18.75 593.419 18.875 593.879 18.985L594.659 19.18C595.269 19.31 595.814 19.49 596.294 19.72C596.784 19.94 597.174 20.245 597.464 20.635C597.754 21.015 597.899 21.515 597.899 22.135C597.899 22.755 597.744 23.295 597.434 23.755C597.124 24.215 596.684 24.575 596.114 24.835C595.554 25.085 594.894 25.21 594.134 25.21Z" fill="black"/>
</svg>
