<svg width="817" height="38" viewBox="0 0 817 38" fill="none" xmlns="http://www.w3.org/2000/svg">
<path d="M816.5 19H2" stroke="black" stroke-width="2"/>
<path d="M16 5L2 19L16 33" stroke="black" stroke-width="2"/>
<rect x="141" y="1" width="185" height="36" rx="18" fill="white" stroke="black" stroke-width="2"/>
<path d="M175.356 24.21C174.106 24.21 173.111 23.85 172.371 23.13C171.631 22.4 171.261 21.34 171.261 19.95V17.55C171.261 16.16 171.631 15.105 172.371 14.385C173.111 13.655 174.106 13.29 175.356 13.29C176.596 13.29 177.546 13.635 178.206 14.325C178.876 15.015 179.211 15.96 179.211 17.16V17.235H177.966V17.115C177.966 16.325 177.751 15.68 177.321 15.18C176.901 14.67 176.246 14.415 175.356 14.415C174.466 14.415 173.771 14.69 173.271 15.24C172.771 15.78 172.521 16.54 172.521 17.52V19.98C172.521 20.96 172.771 21.725 173.271 22.275C173.771 22.815 174.466 23.085 175.356 23.085C176.246 23.085 176.901 22.835 177.321 22.335C177.751 21.825 177.966 21.175 177.966 20.385V20.145H179.211V20.34C179.211 21.54 178.876 22.485 178.206 23.175C177.546 23.865 176.596 24.21 175.356 24.21ZM184.758 24L187.998 13.5H190.218L193.458 24H192.153L191.343 21.345H186.873L186.063 24H184.758ZM187.188 20.205H191.013L189.213 14.265H189.003L187.188 20.205ZM200.983 24V14.64H197.608V13.5H205.618V14.64H202.243V24H200.983ZM211.721 24V13.5H218.186V14.64H212.981V18.15H217.766V19.29H212.981V22.86H218.261V24H211.721ZM228.334 24.21C227.554 24.21 226.864 24.05 226.264 23.73C225.674 23.4 225.209 22.92 224.869 22.29C224.539 21.66 224.374 20.88 224.374 19.95V17.55C224.374 16.16 224.744 15.105 225.484 14.385C226.224 13.655 227.219 13.29 228.469 13.29C229.709 13.29 230.654 13.63 231.304 14.31C231.954 14.99 232.279 15.9 232.279 17.04V17.115H231.034V17.01C231.034 16.51 230.944 16.065 230.764 15.675C230.584 15.285 230.304 14.98 229.924 14.76C229.544 14.53 229.059 14.415 228.469 14.415C227.579 14.415 226.884 14.69 226.384 15.24C225.884 15.78 225.634 16.54 225.634 17.52V19.98C225.634 20.96 225.884 21.725 226.384 22.275C226.884 22.815 227.584 23.085 228.484 23.085C229.364 23.085 230.009 22.835 230.419 22.335C230.839 21.835 231.049 21.17 231.049 20.34V20.085H227.869V19.005H232.279V24H231.139V22.86H230.929C230.819 23.08 230.664 23.295 230.464 23.505C230.264 23.715 229.994 23.885 229.654 24.015C229.314 24.145 228.874 24.21 228.334 24.21ZM242.886 24.21C241.636 24.21 240.636 23.85 239.886 23.13C239.146 22.4 238.776 21.34 238.776 19.95V17.55C238.776 16.16 239.146 15.105 239.886 14.385C240.636 13.655 241.636 13.29 242.886 13.29C244.146 13.29 245.146 13.655 245.886 14.385C246.636 15.105 247.011 16.16 247.011 17.55V19.95C247.011 21.34 246.636 22.4 245.886 23.13C245.146 23.85 244.146 24.21 242.886 24.21ZM242.886 23.085C243.796 23.085 244.501 22.815 245.001 22.275C245.501 21.725 245.751 20.965 245.751 19.995V17.505C245.751 16.535 245.501 15.78 245.001 15.24C244.501 14.69 243.796 14.415 242.886 14.415C241.986 14.415 241.286 14.69 240.786 15.24C240.286 15.78 240.036 16.535 240.036 17.505V19.995C240.036 20.965 240.286 21.725 240.786 22.275C241.286 22.815 241.986 23.085 242.886 23.085ZM253.61 24V13.5H257.855C258.505 13.5 259.075 13.615 259.565 13.845C260.065 14.065 260.455 14.385 260.735 14.805C261.015 15.215 261.155 15.71 261.155 16.29V16.455C261.155 17.145 260.99 17.69 260.66 18.09C260.33 18.49 259.94 18.76 259.49 18.9V19.11C259.85 19.12 260.145 19.24 260.375 19.47C260.615 19.69 260.735 20.025 260.735 20.475V24H259.49V20.625C259.49 20.325 259.405 20.095 259.235 19.935C259.075 19.775 258.83 19.695 258.5 19.695H254.87V24H253.61ZM254.87 18.555H257.735C258.425 18.555 258.955 18.39 259.325 18.06C259.705 17.72 259.895 17.25 259.895 16.65V16.545C259.895 15.945 259.71 15.48 259.34 15.15C258.97 14.81 258.435 14.64 257.735 14.64H254.87V18.555ZM267.573 24V13.5H268.833V24H267.573ZM274.91 24L278.15 13.5H280.37L283.61 24H282.305L281.495 21.345H277.025L276.215 24H274.91ZM277.34 20.205H281.165L279.365 14.265H279.155L277.34 20.205ZM293.134 24.21C292.374 24.21 291.694 24.075 291.094 23.805C290.494 23.535 290.019 23.13 289.669 22.59C289.329 22.04 289.159 21.355 289.159 20.535V20.22H290.404V20.535C290.404 21.405 290.659 22.055 291.169 22.485C291.679 22.905 292.334 23.115 293.134 23.115C293.954 23.115 294.579 22.93 295.009 22.56C295.439 22.19 295.654 21.725 295.654 21.165C295.654 20.775 295.554 20.465 295.354 20.235C295.164 20.005 294.894 19.82 294.544 19.68C294.194 19.53 293.784 19.4 293.314 19.29L292.534 19.095C291.924 18.935 291.384 18.74 290.914 18.51C290.444 18.28 290.074 17.98 289.804 17.61C289.544 17.23 289.414 16.745 289.414 16.155C289.414 15.565 289.559 15.055 289.849 14.625C290.149 14.195 290.564 13.865 291.094 13.635C291.634 13.405 292.254 13.29 292.954 13.29C293.664 13.29 294.299 13.415 294.859 13.665C295.429 13.905 295.874 14.265 296.194 14.745C296.524 15.215 296.689 15.81 296.689 16.53V17.16H295.444V16.53C295.444 16.02 295.334 15.61 295.114 15.3C294.904 14.99 294.609 14.76 294.229 14.61C293.859 14.46 293.434 14.385 292.954 14.385C292.264 14.385 291.709 14.54 291.289 14.85C290.869 15.15 290.659 15.58 290.659 16.14C290.659 16.51 290.749 16.81 290.929 17.04C291.109 17.27 291.364 17.46 291.694 17.61C292.024 17.75 292.419 17.875 292.879 17.985L293.659 18.18C294.269 18.31 294.814 18.49 295.294 18.72C295.784 18.94 296.174 19.245 296.464 19.635C296.754 20.015 296.899 20.515 296.899 21.135C296.899 21.755 296.744 22.295 296.434 22.755C296.124 23.215 295.684 23.575 295.114 23.835C294.554 24.085 293.894 24.21 293.134 24.21Z" fill="black"/>
</svg>
