<svg width="72" height="72" viewBox="0 0 72 72" fill="none" xmlns="http://www.w3.org/2000/svg">
<path d="M26.8843 26.257V45.4345C26.8843 46.8085 27.5116 47.854 28.7662 48.571C30.0208 49.2879 31.2455 49.2281 32.4404 48.3917L47.3163 38.8926C48.4515 38.1757 49.019 37.1601 49.019 35.8457C49.019 34.5314 48.4515 33.5158 47.3163 32.7988L32.4404 23.2997C31.2455 22.4633 30.0208 22.4036 28.7662 23.1205C27.5116 23.8374 26.8843 24.8829 26.8843 26.257ZM35.8457 71.6915C30.8871 71.6915 26.2271 70.7499 21.8659 68.8668C17.5047 66.9861 13.711 64.4327 10.4849 61.2066C7.25875 57.9805 4.70533 54.1868 2.82463 49.8256C0.941533 45.4643 -1.52588e-05 40.8044 -1.52588e-05 35.8457C-1.52588e-05 30.8871 0.941533 26.2271 2.82463 21.8659C4.70533 17.5047 7.25875 13.711 10.4849 10.4849C13.711 7.25876 17.5047 4.70415 21.8659 2.82106C26.2271 0.940353 30.8871 0 35.8457 0C40.8044 0 45.4643 0.940353 49.8255 2.82106C54.1868 4.70415 57.9804 7.25876 61.2066 10.4849C64.4327 13.711 66.9861 17.5047 68.8668 21.8659C70.7499 26.2271 71.6914 30.8871 71.6914 35.8457C71.6914 40.8044 70.7499 45.4643 68.8668 49.8256C66.9861 54.1868 64.4327 57.9805 61.2066 61.2066C57.9804 64.4327 54.1868 66.9861 49.8255 68.8668C45.4643 70.7499 40.8044 71.6915 35.8457 71.6915Z" fill="#FF8002"/>
</svg>
