<svg width="133" height="25" viewBox="0 0 133 25" fill="none" xmlns="http://www.w3.org/2000/svg">
<rect width="133" height="25" rx="12.5" fill="url(#paint0_linear_436_66)"/>
<path d="M31.3217 17.5V10.165H32.4767V11.08H32.6867C32.8267 10.82 33.0567 10.58 33.3767 10.36C33.6967 10.14 34.1467 10.03 34.7267 10.03C35.2967 10.03 35.7567 10.155 36.1067 10.405C36.4667 10.655 36.7267 10.96 36.8867 11.32H37.0967C37.2667 10.96 37.5217 10.655 37.8617 10.405C38.2117 10.155 38.6967 10.03 39.3167 10.03C39.8067 10.03 40.2367 10.13 40.6067 10.33C40.9767 10.53 41.2667 10.82 41.4767 11.2C41.6967 11.57 41.8067 12.015 41.8067 12.535V17.5H40.6217V12.64C40.6217 12.15 40.4767 11.765 40.1867 11.485C39.9067 11.195 39.5117 11.05 39.0017 11.05C38.4617 11.05 38.0167 11.225 37.6667 11.575C37.3267 11.925 37.1567 12.43 37.1567 13.09V17.5H35.9717V12.64C35.9717 12.15 35.8267 11.765 35.5367 11.485C35.2567 11.195 34.8617 11.05 34.3517 11.05C33.8117 11.05 33.3667 11.225 33.0167 11.575C32.6767 11.925 32.5067 12.43 32.5067 13.09V17.5H31.3217ZM46.4769 17.71C45.9669 17.71 45.5019 17.62 45.0819 17.44C44.6619 17.26 44.3319 17 44.0919 16.66C43.8519 16.32 43.7319 15.905 43.7319 15.415C43.7319 14.915 43.8519 14.505 44.0919 14.185C44.3319 13.855 44.6619 13.61 45.0819 13.45C45.5019 13.28 45.9719 13.195 46.4919 13.195H48.9669V12.655C48.9669 12.135 48.8119 11.725 48.5019 11.425C48.2019 11.125 47.7519 10.975 47.1519 10.975C46.5619 10.975 46.1019 11.12 45.7719 11.41C45.4419 11.69 45.2169 12.07 45.0969 12.55L43.9869 12.19C44.1069 11.78 44.2969 11.41 44.5569 11.08C44.8169 10.74 45.1619 10.47 45.5919 10.27C46.0319 10.06 46.5569 9.955 47.1669 9.955C48.1069 9.955 48.8369 10.2 49.3569 10.69C49.8769 11.17 50.1369 11.85 50.1369 12.73V16.045C50.1369 16.345 50.2769 16.495 50.5569 16.495H51.2319V17.5H50.1969C49.8669 17.5 49.6019 17.41 49.4019 17.23C49.2019 17.04 49.1019 16.79 49.1019 16.48V16.405H48.9219C48.8119 16.595 48.6619 16.795 48.4719 17.005C48.2919 17.205 48.0419 17.37 47.7219 17.5C47.4019 17.64 46.9869 17.71 46.4769 17.71ZM46.6119 16.69C47.3119 16.69 47.8769 16.485 48.3069 16.075C48.7469 15.655 48.9669 15.07 48.9669 14.32V14.155H46.5369C46.0669 14.155 45.6769 14.26 45.3669 14.47C45.0669 14.67 44.9169 14.975 44.9169 15.385C44.9169 15.795 45.0719 16.115 45.3819 16.345C45.7019 16.575 46.1119 16.69 46.6119 16.69ZM52.8549 17.5V10.165H54.0099V11.065H54.2199C54.3499 10.745 54.5499 10.51 54.8199 10.36C55.0899 10.21 55.4449 10.135 55.8849 10.135H56.7549V11.215H55.8099C55.2799 11.215 54.8499 11.365 54.5199 11.665C54.1999 11.955 54.0399 12.41 54.0399 13.03V17.5H52.8549ZM58.5092 17.5V7H59.6942V13.18H59.9042L63.2642 10.165H64.9142L60.8492 13.735L65.0342 17.5H63.3992L59.9042 14.305H59.6942V17.5H58.5092ZM69.5449 17.71C68.8049 17.71 68.1549 17.555 67.5949 17.245C67.0349 16.925 66.5999 16.48 66.2899 15.91C65.9799 15.34 65.8249 14.68 65.8249 13.93V13.75C65.8249 12.99 65.9799 12.325 66.2899 11.755C66.5999 11.185 67.0299 10.745 67.5799 10.435C68.1299 10.115 68.7599 9.955 69.4699 9.955C70.1599 9.955 70.7699 10.105 71.2999 10.405C71.8299 10.695 72.2449 11.115 72.5449 11.665C72.8449 12.215 72.9949 12.86 72.9949 13.6V14.14H67.0099C67.0399 14.93 67.2949 15.55 67.7749 16C68.2549 16.44 68.8549 16.66 69.5749 16.66C70.2049 16.66 70.6899 16.515 71.0299 16.225C71.3699 15.935 71.6299 15.59 71.8099 15.19L72.8299 15.685C72.6799 15.995 72.4699 16.305 72.1999 16.615C71.9399 16.925 71.5949 17.185 71.1649 17.395C70.7449 17.605 70.2049 17.71 69.5449 17.71ZM67.0249 13.165H71.7949C71.7549 12.485 71.5199 11.955 71.0899 11.575C70.6699 11.195 70.1299 11.005 69.4699 11.005C68.7999 11.005 68.2499 11.195 67.8199 11.575C67.3899 11.955 67.1249 12.485 67.0249 13.165ZM77.4689 17.5C77.0489 17.5 76.7239 17.385 76.4939 17.155C76.2739 16.925 76.1639 16.61 76.1639 16.21V11.2H73.9589V10.165H76.1639V7.555H77.3489V10.165H79.7489V11.2H77.3489V16.03C77.3489 16.33 77.4939 16.48 77.7839 16.48H79.4189V17.5H77.4689ZM81.6683 17.5V10.165H82.8533V17.5H81.6683ZM82.2683 9.025C82.0083 9.025 81.7883 8.94 81.6083 8.77C81.4383 8.6 81.3533 8.385 81.3533 8.125C81.3533 7.855 81.4383 7.635 81.6083 7.465C81.7883 7.295 82.0083 7.21 82.2683 7.21C82.5283 7.21 82.7433 7.295 82.9133 7.465C83.0833 7.635 83.1683 7.855 83.1683 8.125C83.1683 8.385 83.0833 8.6 82.9133 8.77C82.7433 8.94 82.5283 9.025 82.2683 9.025ZM85.3451 17.5V10.165H86.5001V11.41H86.7101C86.8701 11.06 87.1401 10.745 87.5201 10.465C87.9101 10.175 88.4801 10.03 89.2301 10.03C89.7801 10.03 90.2701 10.145 90.7001 10.375C91.1401 10.605 91.4901 10.945 91.7501 11.395C92.0101 11.845 92.1401 12.4 92.1401 13.06V17.5H90.9551V13.15C90.9551 12.42 90.7701 11.89 90.4001 11.56C90.0401 11.23 89.5501 11.065 88.9301 11.065C88.2201 11.065 87.6401 11.295 87.1901 11.755C86.7501 12.215 86.5301 12.9 86.5301 13.81V17.5H85.3451ZM94.1843 13.87V13.66C94.1843 12.89 94.3393 12.23 94.6493 11.68C94.9593 11.13 95.3793 10.705 95.9093 10.405C96.4393 10.105 97.0193 9.955 97.6493 9.955C98.4193 9.955 99.0093 10.105 99.4193 10.405C99.8393 10.695 100.149 11.02 100.349 11.38H100.559V10.165H101.684V19.21C101.684 19.61 101.574 19.925 101.354 20.155C101.134 20.385 100.814 20.5 100.394 20.5H95.4143V19.45H100.079C100.379 19.45 100.529 19.3 100.529 19V16.21H100.319C100.199 16.43 100.029 16.645 99.8093 16.855C99.5893 17.065 99.3043 17.24 98.9543 17.38C98.6043 17.51 98.1693 17.575 97.6493 17.575C97.0193 17.575 96.4393 17.425 95.9093 17.125C95.3793 16.825 94.9593 16.4 94.6493 15.85C94.3393 15.29 94.1843 14.63 94.1843 13.87ZM97.9643 16.525C98.7243 16.525 99.3393 16.285 99.8093 15.805C100.289 15.325 100.529 14.665 100.529 13.825V13.705C100.529 12.855 100.289 12.195 99.8093 11.725C99.3393 11.245 98.7243 11.005 97.9643 11.005C97.2143 11.005 96.5943 11.245 96.1043 11.725C95.6243 12.195 95.3843 12.855 95.3843 13.705V13.825C95.3843 14.665 95.6243 15.325 96.1043 15.805C96.5943 16.285 97.2143 16.525 97.9643 16.525Z" fill="white"/>
<defs>
<linearGradient id="paint0_linear_436_66" x1="118.347" y1="-8.39109e-06" x2="5.49475" y2="26.7813" gradientUnits="userSpaceOnUse">
<stop stop-color="#03C1AD"/>
<stop offset="1" stop-color="#03AAC1"/>
</linearGradient>
</defs>
</svg>
