<svg width="133" height="25" viewBox="0 0 133 25" fill="none" xmlns="http://www.w3.org/2000/svg">
<rect width="133" height="25" rx="12.5" fill="url(#paint0_linear_436_64)"/>
<path d="M29.9209 17.71C29.1809 17.71 28.5309 17.555 27.9709 17.245C27.4109 16.925 26.9759 16.48 26.6659 15.91C26.3559 15.34 26.2009 14.68 26.2009 13.93V13.75C26.2009 12.99 26.3559 12.325 26.6659 11.755C26.9759 11.185 27.4059 10.745 27.9559 10.435C28.5059 10.115 29.1359 9.955 29.8459 9.955C30.5359 9.955 31.1459 10.105 31.6759 10.405C32.2059 10.695 32.6209 11.115 32.9209 11.665C33.2209 12.215 33.3709 12.86 33.3709 13.6V14.14H27.3859C27.4159 14.93 27.6709 15.55 28.1509 16C28.6309 16.44 29.2309 16.66 29.9509 16.66C30.5809 16.66 31.0659 16.515 31.4059 16.225C31.7459 15.935 32.0059 15.59 32.1859 15.19L33.2059 15.685C33.0559 15.995 32.8459 16.305 32.5759 16.615C32.3159 16.925 31.9709 17.185 31.5409 17.395C31.1209 17.605 30.5809 17.71 29.9209 17.71ZM27.4009 13.165H32.1709C32.1309 12.485 31.8959 11.955 31.4659 11.575C31.0459 11.195 30.5059 11.005 29.8459 11.005C29.1759 11.005 28.6259 11.195 28.1959 11.575C27.7659 11.955 27.5009 12.485 27.4009 13.165ZM38.3929 17.71C37.4829 17.71 36.7129 17.5 36.0829 17.08C35.4629 16.66 35.0879 15.995 34.9579 15.085L36.0829 14.83C36.1629 15.31 36.3129 15.69 36.5329 15.97C36.7529 16.24 37.0229 16.435 37.3429 16.555C37.6729 16.665 38.0229 16.72 38.3929 16.72C38.9429 16.72 39.3779 16.61 39.6979 16.39C40.0179 16.17 40.1779 15.875 40.1779 15.505C40.1779 15.125 40.0229 14.86 39.7129 14.71C39.4129 14.55 38.9979 14.42 38.4679 14.32L37.8529 14.215C37.3829 14.135 36.9529 14.01 36.5629 13.84C36.1729 13.67 35.8629 13.44 35.6329 13.15C35.4029 12.86 35.2879 12.495 35.2879 12.055C35.2879 11.395 35.5429 10.88 36.0529 10.51C36.5629 10.14 37.2379 9.955 38.0779 9.955C38.9079 9.955 39.5779 10.145 40.0879 10.525C40.6079 10.895 40.9429 11.42 41.0929 12.1L39.9829 12.385C39.8929 11.855 39.6779 11.485 39.3379 11.275C38.9979 11.055 38.5779 10.945 38.0779 10.945C37.5779 10.945 37.1829 11.04 36.8929 11.23C36.6029 11.41 36.4579 11.68 36.4579 12.04C36.4579 12.39 36.5929 12.65 36.8629 12.82C37.1429 12.98 37.5129 13.1 37.9729 13.18L38.5879 13.285C39.1079 13.375 39.5729 13.5 39.9829 13.66C40.4029 13.81 40.7329 14.03 40.9729 14.32C41.2229 14.61 41.3479 14.99 41.3479 15.46C41.3479 16.18 41.0779 16.735 40.5379 17.125C40.0079 17.515 39.2929 17.71 38.3929 17.71ZM45.8869 17.5C45.4669 17.5 45.1419 17.385 44.9119 17.155C44.6919 16.925 44.5819 16.61 44.5819 16.21V11.2H42.3769V10.165H44.5819V7.555H45.7669V10.165H48.1669V11.2H45.7669V16.03C45.7669 16.33 45.9119 16.48 46.2019 16.48H47.8369V17.5H45.8869ZM50.0863 17.5V10.165H51.2413V11.065H51.4513C51.5813 10.745 51.7813 10.51 52.0513 10.36C52.3213 10.21 52.6763 10.135 53.1163 10.135H53.9863V11.215H53.0413C52.5113 11.215 52.0813 11.365 51.7513 11.665C51.4313 11.955 51.2713 12.41 51.2713 13.03V17.5H50.0863ZM57.7416 17.71C57.2316 17.71 56.7666 17.62 56.3466 17.44C55.9266 17.26 55.5966 17 55.3566 16.66C55.1166 16.32 54.9966 15.905 54.9966 15.415C54.9966 14.915 55.1166 14.505 55.3566 14.185C55.5966 13.855 55.9266 13.61 56.3466 13.45C56.7666 13.28 57.2366 13.195 57.7566 13.195H60.2316V12.655C60.2316 12.135 60.0766 11.725 59.7666 11.425C59.4666 11.125 59.0166 10.975 58.4166 10.975C57.8266 10.975 57.3666 11.12 57.0366 11.41C56.7066 11.69 56.4816 12.07 56.3616 12.55L55.2516 12.19C55.3716 11.78 55.5616 11.41 55.8216 11.08C56.0816 10.74 56.4266 10.47 56.8566 10.27C57.2966 10.06 57.8216 9.955 58.4316 9.955C59.3716 9.955 60.1016 10.2 60.6216 10.69C61.1416 11.17 61.4016 11.85 61.4016 12.73V16.045C61.4016 16.345 61.5416 16.495 61.8216 16.495H62.4966V17.5H61.4616C61.1316 17.5 60.8666 17.41 60.6666 17.23C60.4666 17.04 60.3666 16.79 60.3666 16.48V16.405H60.1866C60.0766 16.595 59.9266 16.795 59.7366 17.005C59.5566 17.205 59.3066 17.37 58.9866 17.5C58.6666 17.64 58.2516 17.71 57.7416 17.71ZM57.8766 16.69C58.5766 16.69 59.1416 16.485 59.5716 16.075C60.0116 15.655 60.2316 15.07 60.2316 14.32V14.155H57.8016C57.3316 14.155 56.9416 14.26 56.6316 14.47C56.3316 14.67 56.1816 14.975 56.1816 15.385C56.1816 15.795 56.3366 16.115 56.6466 16.345C56.9666 16.575 57.3766 16.69 57.8766 16.69ZM66.3361 17.5C65.9161 17.5 65.5911 17.385 65.3611 17.155C65.1411 16.925 65.0311 16.61 65.0311 16.21V11.2H62.8261V10.165H65.0311V7.555H66.2161V10.165H68.6161V11.2H66.2161V16.03C66.2161 16.33 66.3611 16.48 66.6511 16.48H68.2861V17.5H66.3361ZM73.6319 17.71C72.8919 17.71 72.2419 17.555 71.6819 17.245C71.1219 16.925 70.6869 16.48 70.3769 15.91C70.0669 15.34 69.9119 14.68 69.9119 13.93V13.75C69.9119 12.99 70.0669 12.325 70.3769 11.755C70.6869 11.185 71.1169 10.745 71.6669 10.435C72.2169 10.115 72.8469 9.955 73.5569 9.955C74.2469 9.955 74.8569 10.105 75.3869 10.405C75.9169 10.695 76.3319 11.115 76.6319 11.665C76.9319 12.215 77.0819 12.86 77.0819 13.6V14.14H71.0969C71.1269 14.93 71.3819 15.55 71.8619 16C72.3419 16.44 72.9419 16.66 73.6619 16.66C74.2919 16.66 74.7769 16.515 75.1169 16.225C75.4569 15.935 75.7169 15.59 75.8969 15.19L76.9169 15.685C76.7669 15.995 76.5569 16.305 76.2869 16.615C76.0269 16.925 75.6819 17.185 75.2519 17.395C74.8319 17.605 74.2919 17.71 73.6319 17.71ZM71.1119 13.165H75.8819C75.8419 12.485 75.6069 11.955 75.1769 11.575C74.7569 11.195 74.2169 11.005 73.5569 11.005C72.8869 11.005 72.3369 11.195 71.9069 11.575C71.4769 11.955 71.2119 12.485 71.1119 13.165ZM78.7888 13.87V13.66C78.7888 12.89 78.9438 12.23 79.2538 11.68C79.5638 11.13 79.9838 10.705 80.5138 10.405C81.0438 10.105 81.6238 9.955 82.2538 9.955C83.0238 9.955 83.6138 10.105 84.0238 10.405C84.4438 10.695 84.7538 11.02 84.9538 11.38H85.1638V10.165H86.2888V19.21C86.2888 19.61 86.1788 19.925 85.9588 20.155C85.7388 20.385 85.4188 20.5 84.9988 20.5H80.0188V19.45H84.6838C84.9838 19.45 85.1338 19.3 85.1338 19V16.21H84.9238C84.8038 16.43 84.6338 16.645 84.4138 16.855C84.1938 17.065 83.9088 17.24 83.5588 17.38C83.2088 17.51 82.7738 17.575 82.2538 17.575C81.6238 17.575 81.0438 17.425 80.5138 17.125C79.9838 16.825 79.5638 16.4 79.2538 15.85C78.9438 15.29 78.7888 14.63 78.7888 13.87ZM82.5688 16.525C83.3288 16.525 83.9438 16.285 84.4138 15.805C84.8938 15.325 85.1338 14.665 85.1338 13.825V13.705C85.1338 12.855 84.8938 12.195 84.4138 11.725C83.9438 11.245 83.3288 11.005 82.5688 11.005C81.8188 11.005 81.1988 11.245 80.7088 11.725C80.2288 12.195 79.9888 12.855 79.9888 13.705V13.825C79.9888 14.665 80.2288 15.325 80.7088 15.805C81.1988 16.285 81.8188 16.525 82.5688 16.525ZM88.7728 17.5V10.165H89.9578V17.5H88.7728ZM89.3728 9.025C89.1128 9.025 88.8928 8.94 88.7128 8.77C88.5428 8.6 88.4578 8.385 88.4578 8.125C88.4578 7.855 88.5428 7.635 88.7128 7.465C88.8928 7.295 89.1128 7.21 89.3728 7.21C89.6328 7.21 89.8478 7.295 90.0178 7.465C90.1878 7.635 90.2728 7.855 90.2728 8.125C90.2728 8.385 90.1878 8.6 90.0178 8.77C89.8478 8.94 89.6328 9.025 89.3728 9.025ZM94.6996 17.71C94.1896 17.71 93.7246 17.62 93.3046 17.44C92.8846 17.26 92.5546 17 92.3146 16.66C92.0746 16.32 91.9546 15.905 91.9546 15.415C91.9546 14.915 92.0746 14.505 92.3146 14.185C92.5546 13.855 92.8846 13.61 93.3046 13.45C93.7246 13.28 94.1946 13.195 94.7146 13.195H97.1896V12.655C97.1896 12.135 97.0346 11.725 96.7246 11.425C96.4246 11.125 95.9746 10.975 95.3746 10.975C94.7846 10.975 94.3246 11.12 93.9946 11.41C93.6646 11.69 93.4396 12.07 93.3196 12.55L92.2096 12.19C92.3296 11.78 92.5196 11.41 92.7796 11.08C93.0396 10.74 93.3846 10.47 93.8146 10.27C94.2546 10.06 94.7796 9.955 95.3896 9.955C96.3296 9.955 97.0596 10.2 97.5796 10.69C98.0996 11.17 98.3596 11.85 98.3596 12.73V16.045C98.3596 16.345 98.4996 16.495 98.7796 16.495H99.4546V17.5H98.4196C98.0896 17.5 97.8246 17.41 97.6246 17.23C97.4246 17.04 97.3246 16.79 97.3246 16.48V16.405H97.1446C97.0346 16.595 96.8846 16.795 96.6946 17.005C96.5146 17.205 96.2646 17.37 95.9446 17.5C95.6246 17.64 95.2096 17.71 94.6996 17.71ZM94.8346 16.69C95.5346 16.69 96.0996 16.485 96.5296 16.075C96.9696 15.655 97.1896 15.07 97.1896 14.32V14.155H94.7596C94.2896 14.155 93.8996 14.26 93.5896 14.47C93.2896 14.67 93.1396 14.975 93.1396 15.385C93.1396 15.795 93.2946 16.115 93.6046 16.345C93.9246 16.575 94.3346 16.69 94.8346 16.69ZM103.974 17.71C103.064 17.71 102.294 17.5 101.664 17.08C101.044 16.66 100.669 15.995 100.539 15.085L101.664 14.83C101.744 15.31 101.894 15.69 102.114 15.97C102.334 16.24 102.604 16.435 102.924 16.555C103.254 16.665 103.604 16.72 103.974 16.72C104.524 16.72 104.959 16.61 105.279 16.39C105.599 16.17 105.759 15.875 105.759 15.505C105.759 15.125 105.604 14.86 105.294 14.71C104.994 14.55 104.579 14.42 104.049 14.32L103.434 14.215C102.964 14.135 102.534 14.01 102.144 13.84C101.754 13.67 101.444 13.44 101.214 13.15C100.984 12.86 100.869 12.495 100.869 12.055C100.869 11.395 101.124 10.88 101.634 10.51C102.144 10.14 102.819 9.955 103.659 9.955C104.489 9.955 105.159 10.145 105.669 10.525C106.189 10.895 106.524 11.42 106.674 12.1L105.564 12.385C105.474 11.855 105.259 11.485 104.919 11.275C104.579 11.055 104.159 10.945 103.659 10.945C103.159 10.945 102.764 11.04 102.474 11.23C102.184 11.41 102.039 11.68 102.039 12.04C102.039 12.39 102.174 12.65 102.444 12.82C102.724 12.98 103.094 13.1 103.554 13.18L104.169 13.285C104.689 13.375 105.154 13.5 105.564 13.66C105.984 13.81 106.314 14.03 106.554 14.32C106.804 14.61 106.929 14.99 106.929 15.46C106.929 16.18 106.659 16.735 106.119 17.125C105.589 17.515 104.874 17.71 103.974 17.71Z" fill="white"/>
<defs>
<linearGradient id="paint0_linear_436_64" x1="118.347" y1="-8.39109e-06" x2="5.49475" y2="26.7813" gradientUnits="userSpaceOnUse">
<stop stop-color="#03C1AD"/>
<stop offset="1" stop-color="#03AAC1"/>
</linearGradient>
</defs>
</svg>
