<svg width="150" height="150" viewBox="0 0 150 150" fill="none" xmlns="http://www.w3.org/2000/svg">
<path d="M102.54 36C90.7272 36 85.735 41.6367 77.5085 41.6367C69.0739 41.6367 62.6403 36.041 52.404 36.041C42.3844 36.041 31.6999 42.1582 24.9147 52.5791C15.3874 67.2744 17.0046 94.9512 32.4352 118.529C37.9548 126.97 45.3258 136.436 54.9938 136.538H55.1696C63.5719 136.538 66.068 131.036 77.6315 130.972H77.8073C89.1979 130.972 91.4831 136.506 99.8503 136.506H100.026C109.694 136.403 117.461 125.915 122.98 117.507C126.953 111.46 128.429 108.425 131.476 101.584C109.155 93.1113 105.569 61.4678 127.644 49.3359C120.906 40.8984 111.437 36.0117 102.51 36.0117L102.54 36Z" fill="black"/>
<path d="M98.1438 7C91.1126 7.47754 82.9094 11.9541 78.1048 17.7988C73.7454 23.0957 70.1594 30.9531 71.5657 38.5732H72.1282C79.6165 38.5732 87.2805 34.0645 91.7571 28.2871C96.0696 22.7881 99.3391 14.9951 98.1438 7Z" fill="black"/>
</svg>
