<svg width="150" height="150" viewBox="0 0 150 150" fill="none" xmlns="http://www.w3.org/2000/svg">
<path d="M14.203 110.956C25.9017 124.691 41.5377 134.501 58.995 139.058C74.6982 142.277 91.0148 140.51 105.665 134.004C112.971 130.643 119.602 125.977 125.232 120.234C125.474 119.822 125.547 119.333 125.438 118.868C125.329 118.403 125.046 117.997 124.646 117.735C123.891 117.457 123.062 117.452 122.303 117.721C111.58 123.292 100.063 127.179 88.1571 129.246C75.6718 130.623 63.0407 129.747 50.8651 126.659C38.4118 122.534 26.6495 116.56 15.9726 108.937C15.7004 108.849 15.4083 108.843 15.1323 108.918C14.8564 108.994 14.6087 109.149 14.4199 109.364C14.231 109.579 14.1093 109.845 14.0697 110.128C14.0302 110.412 14.0745 110.7 14.1972 110.959L14.203 110.956Z" fill="black"/>
<path d="M113.423 113.801C118.145 112.884 122.975 112.664 127.761 113.147L127.957 113.186C128.711 113.368 129.362 113.842 129.767 114.504C130.171 115.166 130.297 115.961 130.116 116.716C129.179 121.376 127.691 125.907 125.684 130.216C125.626 130.404 125.644 130.607 125.735 130.782C125.826 130.956 125.983 131.087 126.17 131.147C126.28 131.182 126.396 131.19 126.51 131.171C126.623 131.152 126.731 131.107 126.823 131.039C129.649 128.768 131.933 125.895 133.509 122.631C135.086 119.366 135.915 115.791 135.938 112.166C136.008 111.264 135.741 110.368 135.188 109.652C134.634 108.936 133.834 108.452 132.943 108.293C125.928 107.084 118.715 108.588 112.767 112.5C112.607 112.616 112.5 112.791 112.469 112.986C112.437 113.18 112.485 113.38 112.6 113.54C112.692 113.664 112.821 113.757 112.969 113.803C113.117 113.85 113.276 113.849 113.423 113.801ZM89.1329 95.1914C86.6089 97.9855 83.7652 100.473 80.6603 102.603C74.7362 106.104 68.0023 108 61.1222 108.105C55.0385 107.973 49.149 105.939 44.2794 102.29C40.301 98.6528 37.436 93.9617 36.0171 88.7613C34.5983 83.561 34.6838 78.0648 36.2638 72.9111C37.7802 68.3455 40.2791 64.1679 43.5844 60.6723C46.8896 57.1767 50.921 54.4481 55.3946 52.6787C65.346 49.6886 75.6776 48.1541 86.0685 48.123V37.207C85.7302 34.7941 84.6061 32.5599 82.87 30.8503C81.1339 29.1408 78.8828 28.0511 76.4649 27.75C73.3689 27.3283 70.2164 27.741 67.3331 28.9453C65.3063 29.8989 63.5314 31.3146 62.151 33.0787C60.7707 34.8427 59.8232 36.9059 59.3849 39.1025C59.0619 39.7817 58.5297 40.3395 57.8663 40.6938C57.2029 41.0482 56.4434 41.1805 55.6993 41.0713L40.7872 39.7529C40.1199 39.5725 39.5252 39.1891 39.0853 38.6559C38.6455 38.1226 38.3823 37.4658 38.3321 36.7763C39.5258 29.4812 43.3393 22.8719 49.0577 18.1875C56.6287 12.3271 65.9693 9.21909 75.5421 9.37498C84.4123 9.45614 93.0387 12.2886 100.231 17.4814C103.204 19.9936 105.561 23.1548 107.12 26.7214C108.68 30.2881 109.4 34.165 109.225 38.0537V75.8203C109.409 78.9973 110.205 82.1088 111.568 84.9843L116.218 91.79C116.464 92.3035 116.591 92.8657 116.591 93.435C116.591 94.0044 116.464 94.5665 116.218 95.0801L102.451 106.714C101.877 107.026 101.23 107.178 100.576 107.156C99.923 107.133 99.2878 106.936 98.7364 106.585C95.1484 103.131 91.9299 99.3123 89.1329 95.1914ZM86.0275 60.9638C81.7143 60.8772 77.4016 61.1605 73.1368 61.8105C70.5603 62.3893 68.138 63.5142 66.0335 65.1093C63.929 66.7044 62.1912 68.7325 60.9376 71.0566C59.9034 73.5949 59.4476 76.3317 59.6032 79.0682C59.7587 81.8047 60.5218 84.4722 61.837 86.8769C63.443 88.8833 65.6556 90.3156 68.1436 90.9594C70.6316 91.6032 73.2612 91.4239 75.6388 90.4482C78.4461 88.6481 80.8289 86.2598 82.6226 83.4483C84.4163 80.6369 85.578 77.4695 86.0275 74.165V60.9638Z" fill="black"/>
</svg>
