<svg width="150" height="150" viewBox="0 0 150 150" fill="none" xmlns="http://www.w3.org/2000/svg">
<path d="M120.255 83.4219C118.79 80.0527 116.534 77.0938 112.022 74.6035C109.691 73.2851 107.186 72.299 104.581 71.6738C106.334 70.8595 107.946 69.7717 109.356 68.4512C111.431 66.5971 113.003 64.249 113.927 61.625C114.777 58.9584 115.125 56.1569 114.952 53.3633C114.63 48.4414 113.663 43.666 111.085 40.2383C108.507 36.8105 104.874 34.1738 100.069 32.3281C96.3779 30.9219 92.5986 30.043 86.7393 29.7207V11H75.0205V29.75H65.6455V11H53.6338V29.75H28.125V43.8125H36.29C38.8389 43.8125 40.5674 44.0469 41.4463 44.4863C42.2641 44.8362 42.9365 45.4569 43.3506 46.2441C43.7314 46.9766 43.9072 48.7051 43.9072 51.3711V102.113C43.9072 104.75 43.7314 106.449 43.3506 107.211C42.9697 107.973 42.7646 108.646 41.8564 109.057C40.9482 109.467 40.9189 109.438 38.3994 109.438H30.665L28.125 123.5H53.6133V142.25H65.625V123.5H75V142.25H86.7188V123.383C94.3359 123.002 99.7559 122.006 104.121 120.365C109.775 118.256 114.111 115.18 117.217 111.137C120.322 107.094 121.318 100.912 121.591 96.1367C121.787 91.8887 121.582 86.4102 120.255 83.4219ZM65.625 45.5703H75V67.25H65.625V45.5703ZM65.625 107.68V81.3125H75V107.68H65.625ZM86.7188 46.7129C88.4766 47.4453 89.6191 48.9102 90.7617 50.4336C92.0215 52.1035 92.666 54.3301 92.666 56.7031C92.666 58.9883 91.8164 60.9512 90.4687 62.709C89.3555 64.1445 88.4766 65.1406 86.7188 65.9609V46.7129ZM95.1562 101.41C92.8711 103.432 91.5527 104.369 88.6816 105.453C88.0395 105.679 87.3839 105.865 86.7188 106.01V81.752C87.8648 81.9216 88.98 82.2571 90.0293 82.748C92.3145 83.7148 94.4824 84.7695 95.8301 86.6152C97.3244 88.7352 98.1415 91.2581 98.1738 93.8516C98.165 97.0449 97.3447 99.4766 95.1475 101.41H95.1562Z" fill="black"/>
</svg>
