<svg width="150" height="150" viewBox="0 0 150 150" fill="none" xmlns="http://www.w3.org/2000/svg">
<path d="M55.3125 74.9795C55.3113 78.8736 56.465 82.6805 58.6276 85.9189C60.7902 89.1572 63.8645 91.6815 67.4619 93.1725C71.0592 94.6635 75.0179 95.0543 78.8372 94.2953C82.6566 93.5363 86.1652 91.6617 88.9191 88.9086C91.673 86.1555 93.5487 82.6475 94.3088 78.8283C95.0689 75.0092 94.6794 71.0504 93.1894 67.4526C91.6995 63.8549 89.1761 60.7797 85.9384 58.6162C82.7007 56.4527 78.8941 55.2979 75 55.2979C69.7838 55.3118 64.7852 57.3896 61.0963 61.0775C57.4073 64.7653 55.328 69.7633 55.3125 74.9795Z" fill="black"/>
<path d="M139.673 63.8057V63.8203C139.193 60.9584 138.507 58.1347 137.622 55.3711H137.59C138.489 58.1482 139.181 60.988 139.661 63.8672C139.18 60.9883 138.487 58.1486 137.59 55.3711H92.0625C97.6436 60.3516 101.25 67.1396 101.25 75.0146C101.263 79.6296 100.016 84.1606 97.6436 88.1191L67.6758 140.171C67.6772 140.197 67.6772 140.224 67.6758 140.25V140.332V140.256C70.1084 140.515 72.5536 140.639 75 140.625C77.0039 140.625 78.9873 140.511 80.9473 140.332C83.8835 140.067 86.7983 139.603 89.6719 138.943C118.852 132.281 140.625 106.172 140.625 74.9824C140.625 71.2366 140.307 67.4975 139.673 63.8057Z" fill="black"/>
<path d="M72.6135 101.241C62.7698 101.241 54.5667 95.9941 49.97 88.1191L19.8792 36.0703L19.8382 36C13.3451 44.7907 9.15029 55.0638 7.63439 65.8869C6.11849 76.7099 7.32954 87.7402 11.1576 97.9765C14.9857 108.213 21.3096 117.331 29.5552 124.504C37.8009 131.676 47.7073 136.676 58.3753 139.049V139.034L81.136 99.6006C78.4146 100.647 75.5291 101.203 72.6135 101.241Z" fill="black"/>
<path d="M26.7451 30.6358L49.4062 69.6739C50.5827 63.7489 53.7756 58.4144 58.4419 54.5783C63.1081 50.7421 68.9593 48.6411 75 48.6329H135.108C133.042 44.0925 130.511 39.7785 127.556 35.7598L127.591 35.7833C130.535 39.7946 133.054 44.1009 135.108 48.6329H135.158C133.105 44.0873 130.586 39.7673 127.641 35.7422C127.604 35.7197 127.57 35.6942 127.538 35.6661C121.764 27.947 114.36 21.5953 105.853 17.0625C97.3455 12.5298 87.9438 9.92755 78.3166 9.44085C68.6893 8.95416 59.0731 10.595 50.152 14.2467C41.2309 17.8983 33.2241 23.471 26.7012 30.5684L26.7422 30.6387L26.7451 30.6358Z" fill="black"/>
</svg>
