<svg width="649" height="337" viewBox="0 0 649 337" fill="none" xmlns="http://www.w3.org/2000/svg">
<rect x="278" width="133" height="25" rx="12.5" fill="url(#paint0_linear_173_1376)"/>
<path d="M309.322 17.5V10.165H310.477V11.08H310.687C310.827 10.82 311.057 10.58 311.377 10.36C311.697 10.14 312.147 10.03 312.727 10.03C313.297 10.03 313.757 10.155 314.107 10.405C314.467 10.655 314.727 10.96 314.887 11.32H315.097C315.267 10.96 315.522 10.655 315.862 10.405C316.212 10.155 316.697 10.03 317.317 10.03C317.807 10.03 318.237 10.13 318.607 10.33C318.977 10.53 319.267 10.82 319.477 11.2C319.697 11.57 319.807 12.015 319.807 12.535V17.5H318.622V12.64C318.622 12.15 318.477 11.765 318.187 11.485C317.907 11.195 317.512 11.05 317.002 11.05C316.462 11.05 316.017 11.225 315.667 11.575C315.327 11.925 315.157 12.43 315.157 13.09V17.5H313.972V12.64C313.972 12.15 313.827 11.765 313.537 11.485C313.257 11.195 312.862 11.05 312.352 11.05C311.812 11.05 311.367 11.225 311.017 11.575C310.677 11.925 310.507 12.43 310.507 13.09V17.5H309.322ZM324.477 17.71C323.967 17.71 323.502 17.62 323.082 17.44C322.662 17.26 322.332 17 322.092 16.66C321.852 16.32 321.732 15.905 321.732 15.415C321.732 14.915 321.852 14.505 322.092 14.185C322.332 13.855 322.662 13.61 323.082 13.45C323.502 13.28 323.972 13.195 324.492 13.195H326.967V12.655C326.967 12.135 326.812 11.725 326.502 11.425C326.202 11.125 325.752 10.975 325.152 10.975C324.562 10.975 324.102 11.12 323.772 11.41C323.442 11.69 323.217 12.07 323.097 12.55L321.987 12.19C322.107 11.78 322.297 11.41 322.557 11.08C322.817 10.74 323.162 10.47 323.592 10.27C324.032 10.06 324.557 9.955 325.167 9.955C326.107 9.955 326.837 10.2 327.357 10.69C327.877 11.17 328.137 11.85 328.137 12.73V16.045C328.137 16.345 328.277 16.495 328.557 16.495H329.232V17.5H328.197C327.867 17.5 327.602 17.41 327.402 17.23C327.202 17.04 327.102 16.79 327.102 16.48V16.405H326.922C326.812 16.595 326.662 16.795 326.472 17.005C326.292 17.205 326.042 17.37 325.722 17.5C325.402 17.64 324.987 17.71 324.477 17.71ZM324.612 16.69C325.312 16.69 325.877 16.485 326.307 16.075C326.747 15.655 326.967 15.07 326.967 14.32V14.155H324.537C324.067 14.155 323.677 14.26 323.367 14.47C323.067 14.67 322.917 14.975 322.917 15.385C322.917 15.795 323.072 16.115 323.382 16.345C323.702 16.575 324.112 16.69 324.612 16.69ZM330.855 17.5V10.165H332.01V11.065H332.22C332.35 10.745 332.55 10.51 332.82 10.36C333.09 10.21 333.445 10.135 333.885 10.135H334.755V11.215H333.81C333.28 11.215 332.85 11.365 332.52 11.665C332.2 11.955 332.04 12.41 332.04 13.03V17.5H330.855ZM336.509 17.5V7H337.694V13.18H337.904L341.264 10.165H342.914L338.849 13.735L343.034 17.5H341.399L337.904 14.305H337.694V17.5H336.509ZM347.545 17.71C346.805 17.71 346.155 17.555 345.595 17.245C345.035 16.925 344.6 16.48 344.29 15.91C343.98 15.34 343.825 14.68 343.825 13.93V13.75C343.825 12.99 343.98 12.325 344.29 11.755C344.6 11.185 345.03 10.745 345.58 10.435C346.13 10.115 346.76 9.955 347.47 9.955C348.16 9.955 348.77 10.105 349.3 10.405C349.83 10.695 350.245 11.115 350.545 11.665C350.845 12.215 350.995 12.86 350.995 13.6V14.14H345.01C345.04 14.93 345.295 15.55 345.775 16C346.255 16.44 346.855 16.66 347.575 16.66C348.205 16.66 348.69 16.515 349.03 16.225C349.37 15.935 349.63 15.59 349.81 15.19L350.83 15.685C350.68 15.995 350.47 16.305 350.2 16.615C349.94 16.925 349.595 17.185 349.165 17.395C348.745 17.605 348.205 17.71 347.545 17.71ZM345.025 13.165H349.795C349.755 12.485 349.52 11.955 349.09 11.575C348.67 11.195 348.13 11.005 347.47 11.005C346.8 11.005 346.25 11.195 345.82 11.575C345.39 11.955 345.125 12.485 345.025 13.165ZM355.469 17.5C355.049 17.5 354.724 17.385 354.494 17.155C354.274 16.925 354.164 16.61 354.164 16.21V11.2H351.959V10.165H354.164V7.555H355.349V10.165H357.749V11.2H355.349V16.03C355.349 16.33 355.494 16.48 355.784 16.48H357.419V17.5H355.469ZM359.668 17.5V10.165H360.853V17.5H359.668ZM360.268 9.025C360.008 9.025 359.788 8.94 359.608 8.77C359.438 8.6 359.353 8.385 359.353 8.125C359.353 7.855 359.438 7.635 359.608 7.465C359.788 7.295 360.008 7.21 360.268 7.21C360.528 7.21 360.743 7.295 360.913 7.465C361.083 7.635 361.168 7.855 361.168 8.125C361.168 8.385 361.083 8.6 360.913 8.77C360.743 8.94 360.528 9.025 360.268 9.025ZM363.345 17.5V10.165H364.5V11.41H364.71C364.87 11.06 365.14 10.745 365.52 10.465C365.91 10.175 366.48 10.03 367.23 10.03C367.78 10.03 368.27 10.145 368.7 10.375C369.14 10.605 369.49 10.945 369.75 11.395C370.01 11.845 370.14 12.4 370.14 13.06V17.5H368.955V13.15C368.955 12.42 368.77 11.89 368.4 11.56C368.04 11.23 367.55 11.065 366.93 11.065C366.22 11.065 365.64 11.295 365.19 11.755C364.75 12.215 364.53 12.9 364.53 13.81V17.5H363.345ZM372.184 13.87V13.66C372.184 12.89 372.339 12.23 372.649 11.68C372.959 11.13 373.379 10.705 373.909 10.405C374.439 10.105 375.019 9.955 375.649 9.955C376.419 9.955 377.009 10.105 377.419 10.405C377.839 10.695 378.149 11.02 378.349 11.38H378.559V10.165H379.684V19.21C379.684 19.61 379.574 19.925 379.354 20.155C379.134 20.385 378.814 20.5 378.394 20.5H373.414V19.45H378.079C378.379 19.45 378.529 19.3 378.529 19V16.21H378.319C378.199 16.43 378.029 16.645 377.809 16.855C377.589 17.065 377.304 17.24 376.954 17.38C376.604 17.51 376.169 17.575 375.649 17.575C375.019 17.575 374.439 17.425 373.909 17.125C373.379 16.825 372.959 16.4 372.649 15.85C372.339 15.29 372.184 14.63 372.184 13.87ZM375.964 16.525C376.724 16.525 377.339 16.285 377.809 15.805C378.289 15.325 378.529 14.665 378.529 13.825V13.705C378.529 12.855 378.289 12.195 377.809 11.725C377.339 11.245 376.724 11.005 375.964 11.005C375.214 11.005 374.594 11.245 374.104 11.725C373.624 12.195 373.384 12.855 373.384 13.705V13.825C373.384 14.665 373.624 15.325 374.104 15.805C374.594 16.285 375.214 16.525 375.964 16.525Z" fill="white"/>
<rect x="516" y="107" width="133" height="25" rx="12.5" fill="url(#paint1_linear_173_1376)"/>
<path d="M545.921 124.71C545.181 124.71 544.531 124.555 543.971 124.245C543.411 123.925 542.976 123.48 542.666 122.91C542.356 122.34 542.201 121.68 542.201 120.93V120.75C542.201 119.99 542.356 119.325 542.666 118.755C542.976 118.185 543.406 117.745 543.956 117.435C544.506 117.115 545.136 116.955 545.846 116.955C546.536 116.955 547.146 117.105 547.676 117.405C548.206 117.695 548.621 118.115 548.921 118.665C549.221 119.215 549.371 119.86 549.371 120.6V121.14H543.386C543.416 121.93 543.671 122.55 544.151 123C544.631 123.44 545.231 123.66 545.951 123.66C546.581 123.66 547.066 123.515 547.406 123.225C547.746 122.935 548.006 122.59 548.186 122.19L549.206 122.685C549.056 122.995 548.846 123.305 548.576 123.615C548.316 123.925 547.971 124.185 547.541 124.395C547.121 124.605 546.581 124.71 545.921 124.71ZM543.401 120.165H548.171C548.131 119.485 547.896 118.955 547.466 118.575C547.046 118.195 546.506 118.005 545.846 118.005C545.176 118.005 544.626 118.195 544.196 118.575C543.766 118.955 543.501 119.485 543.401 120.165ZM554.393 124.71C553.483 124.71 552.713 124.5 552.083 124.08C551.463 123.66 551.088 122.995 550.958 122.085L552.083 121.83C552.163 122.31 552.313 122.69 552.533 122.97C552.753 123.24 553.023 123.435 553.343 123.555C553.673 123.665 554.023 123.72 554.393 123.72C554.943 123.72 555.378 123.61 555.698 123.39C556.018 123.17 556.178 122.875 556.178 122.505C556.178 122.125 556.023 121.86 555.713 121.71C555.413 121.55 554.998 121.42 554.468 121.32L553.853 121.215C553.383 121.135 552.953 121.01 552.563 120.84C552.173 120.67 551.863 120.44 551.633 120.15C551.403 119.86 551.288 119.495 551.288 119.055C551.288 118.395 551.543 117.88 552.053 117.51C552.563 117.14 553.238 116.955 554.078 116.955C554.908 116.955 555.578 117.145 556.088 117.525C556.608 117.895 556.943 118.42 557.093 119.1L555.983 119.385C555.893 118.855 555.678 118.485 555.338 118.275C554.998 118.055 554.578 117.945 554.078 117.945C553.578 117.945 553.183 118.04 552.893 118.23C552.603 118.41 552.458 118.68 552.458 119.04C552.458 119.39 552.593 119.65 552.863 119.82C553.143 119.98 553.513 120.1 553.973 120.18L554.588 120.285C555.108 120.375 555.573 120.5 555.983 120.66C556.403 120.81 556.733 121.03 556.973 121.32C557.223 121.61 557.348 121.99 557.348 122.46C557.348 123.18 557.078 123.735 556.538 124.125C556.008 124.515 555.293 124.71 554.393 124.71ZM561.887 124.5C561.467 124.5 561.142 124.385 560.912 124.155C560.692 123.925 560.582 123.61 560.582 123.21V118.2H558.377V117.165H560.582V114.555H561.767V117.165H564.167V118.2H561.767V123.03C561.767 123.33 561.912 123.48 562.202 123.48H563.837V124.5H561.887ZM566.086 124.5V117.165H567.241V118.065H567.451C567.581 117.745 567.781 117.51 568.051 117.36C568.321 117.21 568.676 117.135 569.116 117.135H569.986V118.215H569.041C568.511 118.215 568.081 118.365 567.751 118.665C567.431 118.955 567.271 119.41 567.271 120.03V124.5H566.086ZM573.742 124.71C573.232 124.71 572.767 124.62 572.347 124.44C571.927 124.26 571.597 124 571.357 123.66C571.117 123.32 570.997 122.905 570.997 122.415C570.997 121.915 571.117 121.505 571.357 121.185C571.597 120.855 571.927 120.61 572.347 120.45C572.767 120.28 573.237 120.195 573.757 120.195H576.232V119.655C576.232 119.135 576.077 118.725 575.767 118.425C575.467 118.125 575.017 117.975 574.417 117.975C573.827 117.975 573.367 118.12 573.037 118.41C572.707 118.69 572.482 119.07 572.362 119.55L571.252 119.19C571.372 118.78 571.562 118.41 571.822 118.08C572.082 117.74 572.427 117.47 572.857 117.27C573.297 117.06 573.822 116.955 574.432 116.955C575.372 116.955 576.102 117.2 576.622 117.69C577.142 118.17 577.402 118.85 577.402 119.73V123.045C577.402 123.345 577.542 123.495 577.822 123.495H578.497V124.5H577.462C577.132 124.5 576.867 124.41 576.667 124.23C576.467 124.04 576.367 123.79 576.367 123.48V123.405H576.187C576.077 123.595 575.927 123.795 575.737 124.005C575.557 124.205 575.307 124.37 574.987 124.5C574.667 124.64 574.252 124.71 573.742 124.71ZM573.877 123.69C574.577 123.69 575.142 123.485 575.572 123.075C576.012 122.655 576.232 122.07 576.232 121.32V121.155H573.802C573.332 121.155 572.942 121.26 572.632 121.47C572.332 121.67 572.182 121.975 572.182 122.385C572.182 122.795 572.337 123.115 572.647 123.345C572.967 123.575 573.377 123.69 573.877 123.69ZM582.336 124.5C581.916 124.5 581.591 124.385 581.361 124.155C581.141 123.925 581.031 123.61 581.031 123.21V118.2H578.826V117.165H581.031V114.555H582.216V117.165H584.616V118.2H582.216V123.03C582.216 123.33 582.361 123.48 582.651 123.48H584.286V124.5H582.336ZM589.632 124.71C588.892 124.71 588.242 124.555 587.682 124.245C587.122 123.925 586.687 123.48 586.377 122.91C586.067 122.34 585.912 121.68 585.912 120.93V120.75C585.912 119.99 586.067 119.325 586.377 118.755C586.687 118.185 587.117 117.745 587.667 117.435C588.217 117.115 588.847 116.955 589.557 116.955C590.247 116.955 590.857 117.105 591.387 117.405C591.917 117.695 592.332 118.115 592.632 118.665C592.932 119.215 593.082 119.86 593.082 120.6V121.14H587.097C587.127 121.93 587.382 122.55 587.862 123C588.342 123.44 588.942 123.66 589.662 123.66C590.292 123.66 590.777 123.515 591.117 123.225C591.457 122.935 591.717 122.59 591.897 122.19L592.917 122.685C592.767 122.995 592.557 123.305 592.287 123.615C592.027 123.925 591.682 124.185 591.252 124.395C590.832 124.605 590.292 124.71 589.632 124.71ZM587.112 120.165H591.882C591.842 119.485 591.607 118.955 591.177 118.575C590.757 118.195 590.217 118.005 589.557 118.005C588.887 118.005 588.337 118.195 587.907 118.575C587.477 118.955 587.212 119.485 587.112 120.165ZM594.789 120.87V120.66C594.789 119.89 594.944 119.23 595.254 118.68C595.564 118.13 595.984 117.705 596.514 117.405C597.044 117.105 597.624 116.955 598.254 116.955C599.024 116.955 599.614 117.105 600.024 117.405C600.444 117.695 600.754 118.02 600.954 118.38H601.164V117.165H602.289V126.21C602.289 126.61 602.179 126.925 601.959 127.155C601.739 127.385 601.419 127.5 600.999 127.5H596.019V126.45H600.684C600.984 126.45 601.134 126.3 601.134 126V123.21H600.924C600.804 123.43 600.634 123.645 600.414 123.855C600.194 124.065 599.909 124.24 599.559 124.38C599.209 124.51 598.774 124.575 598.254 124.575C597.624 124.575 597.044 124.425 596.514 124.125C595.984 123.825 595.564 123.4 595.254 122.85C594.944 122.29 594.789 121.63 594.789 120.87ZM598.569 123.525C599.329 123.525 599.944 123.285 600.414 122.805C600.894 122.325 601.134 121.665 601.134 120.825V120.705C601.134 119.855 600.894 119.195 600.414 118.725C599.944 118.245 599.329 118.005 598.569 118.005C597.819 118.005 597.199 118.245 596.709 118.725C596.229 119.195 595.989 119.855 595.989 120.705V120.825C595.989 121.665 596.229 122.325 596.709 122.805C597.199 123.285 597.819 123.525 598.569 123.525ZM604.773 124.5V117.165H605.958V124.5H604.773ZM605.373 116.025C605.113 116.025 604.893 115.94 604.713 115.77C604.543 115.6 604.458 115.385 604.458 115.125C604.458 114.855 604.543 114.635 604.713 114.465C604.893 114.295 605.113 114.21 605.373 114.21C605.633 114.21 605.848 114.295 606.018 114.465C606.188 114.635 606.273 114.855 606.273 115.125C606.273 115.385 606.188 115.6 606.018 115.77C605.848 115.94 605.633 116.025 605.373 116.025ZM610.7 124.71C610.19 124.71 609.725 124.62 609.305 124.44C608.885 124.26 608.555 124 608.315 123.66C608.075 123.32 607.955 122.905 607.955 122.415C607.955 121.915 608.075 121.505 608.315 121.185C608.555 120.855 608.885 120.61 609.305 120.45C609.725 120.28 610.195 120.195 610.715 120.195H613.19V119.655C613.19 119.135 613.035 118.725 612.725 118.425C612.425 118.125 611.975 117.975 611.375 117.975C610.785 117.975 610.325 118.12 609.995 118.41C609.665 118.69 609.44 119.07 609.32 119.55L608.21 119.19C608.33 118.78 608.52 118.41 608.78 118.08C609.04 117.74 609.385 117.47 609.815 117.27C610.255 117.06 610.78 116.955 611.39 116.955C612.33 116.955 613.06 117.2 613.58 117.69C614.1 118.17 614.36 118.85 614.36 119.73V123.045C614.36 123.345 614.5 123.495 614.78 123.495H615.455V124.5H614.42C614.09 124.5 613.825 124.41 613.625 124.23C613.425 124.04 613.325 123.79 613.325 123.48V123.405H613.145C613.035 123.595 612.885 123.795 612.695 124.005C612.515 124.205 612.265 124.37 611.945 124.5C611.625 124.64 611.21 124.71 610.7 124.71ZM610.835 123.69C611.535 123.69 612.1 123.485 612.53 123.075C612.97 122.655 613.19 122.07 613.19 121.32V121.155H610.76C610.29 121.155 609.9 121.26 609.59 121.47C609.29 121.67 609.14 121.975 609.14 122.385C609.14 122.795 609.295 123.115 609.605 123.345C609.925 123.575 610.335 123.69 610.835 123.69ZM619.974 124.71C619.064 124.71 618.294 124.5 617.664 124.08C617.044 123.66 616.669 122.995 616.539 122.085L617.664 121.83C617.744 122.31 617.894 122.69 618.114 122.97C618.334 123.24 618.604 123.435 618.924 123.555C619.254 123.665 619.604 123.72 619.974 123.72C620.524 123.72 620.959 123.61 621.279 123.39C621.599 123.17 621.759 122.875 621.759 122.505C621.759 122.125 621.604 121.86 621.294 121.71C620.994 121.55 620.579 121.42 620.049 121.32L619.434 121.215C618.964 121.135 618.534 121.01 618.144 120.84C617.754 120.67 617.444 120.44 617.214 120.15C616.984 119.86 616.869 119.495 616.869 119.055C616.869 118.395 617.124 117.88 617.634 117.51C618.144 117.14 618.819 116.955 619.659 116.955C620.489 116.955 621.159 117.145 621.669 117.525C622.189 117.895 622.524 118.42 622.674 119.1L621.564 119.385C621.474 118.855 621.259 118.485 620.919 118.275C620.579 118.055 620.159 117.945 619.659 117.945C619.159 117.945 618.764 118.04 618.474 118.23C618.184 118.41 618.039 118.68 618.039 119.04C618.039 119.39 618.174 119.65 618.444 119.82C618.724 119.98 619.094 120.1 619.554 120.18L620.169 120.285C620.689 120.375 621.154 120.5 621.564 120.66C621.984 120.81 622.314 121.03 622.554 121.32C622.804 121.61 622.929 121.99 622.929 122.46C622.929 123.18 622.659 123.735 622.119 124.125C621.589 124.515 620.874 124.71 619.974 124.71Z" fill="white"/>
<rect x="253" y="165" width="133" height="25" rx="12.5" fill="url(#paint2_linear_173_1376)"/>
<path d="M282.448 182.71C281.938 182.71 281.473 182.62 281.053 182.44C280.633 182.26 280.303 182 280.063 181.66C279.823 181.32 279.703 180.905 279.703 180.415C279.703 179.915 279.823 179.505 280.063 179.185C280.303 178.855 280.633 178.61 281.053 178.45C281.473 178.28 281.943 178.195 282.463 178.195H284.938V177.655C284.938 177.135 284.783 176.725 284.473 176.425C284.173 176.125 283.723 175.975 283.123 175.975C282.533 175.975 282.073 176.12 281.743 176.41C281.413 176.69 281.188 177.07 281.068 177.55L279.958 177.19C280.078 176.78 280.268 176.41 280.528 176.08C280.788 175.74 281.133 175.47 281.563 175.27C282.003 175.06 282.528 174.955 283.138 174.955C284.078 174.955 284.808 175.2 285.328 175.69C285.848 176.17 286.108 176.85 286.108 177.73V181.045C286.108 181.345 286.248 181.495 286.528 181.495H287.203V182.5H286.168C285.838 182.5 285.573 182.41 285.373 182.23C285.173 182.04 285.073 181.79 285.073 181.48V181.405H284.893C284.783 181.595 284.633 181.795 284.443 182.005C284.263 182.205 284.013 182.37 283.693 182.5C283.373 182.64 282.958 182.71 282.448 182.71ZM282.583 181.69C283.283 181.69 283.848 181.485 284.278 181.075C284.718 180.655 284.938 180.07 284.938 179.32V179.155H282.508C282.038 179.155 281.648 179.26 281.338 179.47C281.038 179.67 280.888 179.975 280.888 180.385C280.888 180.795 281.043 181.115 281.353 181.345C281.673 181.575 282.083 181.69 282.583 181.69ZM291.441 182.635C290.911 182.635 290.421 182.52 289.971 182.29C289.531 182.06 289.181 181.72 288.921 181.27C288.671 180.81 288.546 180.255 288.546 179.605V175.165H289.731V179.515C289.731 180.245 289.911 180.775 290.271 181.105C290.641 181.435 291.136 181.6 291.756 181.6C292.456 181.6 293.031 181.37 293.481 180.91C293.931 180.45 294.156 179.765 294.156 178.855V175.165H295.341V182.5H294.186V181.255H293.976C293.816 181.605 293.541 181.925 293.151 182.215C292.761 182.495 292.191 182.635 291.441 182.635ZM300.925 182.71C300.295 182.71 299.715 182.56 299.185 182.26C298.655 181.96 298.235 181.525 297.925 180.955C297.615 180.385 297.46 179.71 297.46 178.93V178.735C297.46 177.955 297.615 177.285 297.925 176.725C298.235 176.155 298.65 175.72 299.17 175.42C299.7 175.11 300.285 174.955 300.925 174.955C301.435 174.955 301.865 175.025 302.215 175.165C302.575 175.295 302.865 175.465 303.085 175.675C303.305 175.875 303.475 176.09 303.595 176.32H303.805V172H304.99V182.5H303.835V181.285H303.625C303.425 181.655 303.115 181.985 302.695 182.275C302.275 182.565 301.685 182.71 300.925 182.71ZM301.24 181.66C302 181.66 302.615 181.42 303.085 180.94C303.565 180.45 303.805 179.77 303.805 178.9V178.765C303.805 177.895 303.565 177.22 303.085 176.74C302.615 176.25 302 176.005 301.24 176.005C300.49 176.005 299.87 176.25 299.38 176.74C298.9 177.22 298.66 177.895 298.66 178.765V178.9C298.66 179.77 298.9 180.45 299.38 180.94C299.87 181.42 300.49 181.66 301.24 181.66ZM307.474 182.5V175.165H308.659V182.5H307.474ZM308.074 174.025C307.814 174.025 307.594 173.94 307.414 173.77C307.244 173.6 307.159 173.385 307.159 173.125C307.159 172.855 307.244 172.635 307.414 172.465C307.594 172.295 307.814 172.21 308.074 172.21C308.334 172.21 308.549 172.295 308.719 172.465C308.889 172.635 308.974 172.855 308.974 173.125C308.974 173.385 308.889 173.6 308.719 173.77C308.549 173.94 308.334 174.025 308.074 174.025ZM314.54 182.71C313.8 182.71 313.145 182.555 312.575 182.245C312.015 181.935 311.575 181.5 311.255 180.94C310.945 180.37 310.79 179.7 310.79 178.93V178.735C310.79 177.975 310.945 177.31 311.255 176.74C311.575 176.17 312.015 175.73 312.575 175.42C313.145 175.11 313.8 174.955 314.54 174.955C315.28 174.955 315.93 175.11 316.49 175.42C317.06 175.73 317.5 176.17 317.81 176.74C318.13 177.31 318.29 177.975 318.29 178.735V178.93C318.29 179.7 318.13 180.37 317.81 180.94C317.5 181.5 317.06 181.935 316.49 182.245C315.93 182.555 315.28 182.71 314.54 182.71ZM314.54 181.645C315.32 181.645 315.94 181.4 316.4 180.91C316.87 180.41 317.105 179.74 317.105 178.9V178.765C317.105 177.925 316.87 177.26 316.4 176.77C315.94 176.27 315.32 176.02 314.54 176.02C313.77 176.02 313.15 176.27 312.68 176.77C312.21 177.26 311.975 177.925 311.975 178.765V178.9C311.975 179.74 312.21 180.41 312.68 180.91C313.15 181.4 313.77 181.645 314.54 181.645ZM321.99 182.5L319.365 175.165H320.625L322.83 181.615H323.04L325.245 175.165H326.505L323.88 182.5H321.99ZM328.216 182.5V175.165H329.401V182.5H328.216ZM328.816 174.025C328.556 174.025 328.336 173.94 328.156 173.77C327.986 173.6 327.901 173.385 327.901 173.125C327.901 172.855 327.986 172.635 328.156 172.465C328.336 172.295 328.556 172.21 328.816 172.21C329.076 172.21 329.291 172.295 329.461 172.465C329.631 172.635 329.716 172.855 329.716 173.125C329.716 173.385 329.631 173.6 329.461 173.77C329.291 173.94 329.076 174.025 328.816 174.025ZM334.847 182.71C333.937 182.71 333.167 182.5 332.537 182.08C331.917 181.66 331.542 180.995 331.412 180.085L332.537 179.83C332.617 180.31 332.767 180.69 332.987 180.97C333.207 181.24 333.477 181.435 333.797 181.555C334.127 181.665 334.477 181.72 334.847 181.72C335.397 181.72 335.832 181.61 336.152 181.39C336.472 181.17 336.632 180.875 336.632 180.505C336.632 180.125 336.477 179.86 336.167 179.71C335.867 179.55 335.452 179.42 334.922 179.32L334.307 179.215C333.837 179.135 333.407 179.01 333.017 178.84C332.627 178.67 332.317 178.44 332.087 178.15C331.857 177.86 331.742 177.495 331.742 177.055C331.742 176.395 331.997 175.88 332.507 175.51C333.017 175.14 333.692 174.955 334.532 174.955C335.362 174.955 336.032 175.145 336.542 175.525C337.062 175.895 337.397 176.42 337.547 177.1L336.437 177.385C336.347 176.855 336.132 176.485 335.792 176.275C335.452 176.055 335.032 175.945 334.532 175.945C334.032 175.945 333.637 176.04 333.347 176.23C333.057 176.41 332.912 176.68 332.912 177.04C332.912 177.39 333.047 177.65 333.317 177.82C333.597 177.98 333.967 178.1 334.427 178.18L335.042 178.285C335.562 178.375 336.027 178.5 336.437 178.66C336.857 178.81 337.187 179.03 337.427 179.32C337.677 179.61 337.802 179.99 337.802 180.46C337.802 181.18 337.532 181.735 336.992 182.125C336.462 182.515 335.747 182.71 334.847 182.71ZM342.608 182.635C342.078 182.635 341.588 182.52 341.138 182.29C340.698 182.06 340.348 181.72 340.088 181.27C339.838 180.81 339.713 180.255 339.713 179.605V175.165H340.898V179.515C340.898 180.245 341.078 180.775 341.438 181.105C341.808 181.435 342.303 181.6 342.923 181.6C343.623 181.6 344.198 181.37 344.648 180.91C345.098 180.45 345.323 179.765 345.323 178.855V175.165H346.508V182.5H345.353V181.255H345.143C344.983 181.605 344.708 181.925 344.318 182.215C343.928 182.495 343.358 182.635 342.608 182.635ZM351.237 182.71C350.727 182.71 350.262 182.62 349.842 182.44C349.422 182.26 349.092 182 348.852 181.66C348.612 181.32 348.492 180.905 348.492 180.415C348.492 179.915 348.612 179.505 348.852 179.185C349.092 178.855 349.422 178.61 349.842 178.45C350.262 178.28 350.732 178.195 351.252 178.195H353.727V177.655C353.727 177.135 353.572 176.725 353.262 176.425C352.962 176.125 352.512 175.975 351.912 175.975C351.322 175.975 350.862 176.12 350.532 176.41C350.202 176.69 349.977 177.07 349.857 177.55L348.747 177.19C348.867 176.78 349.057 176.41 349.317 176.08C349.577 175.74 349.922 175.47 350.352 175.27C350.792 175.06 351.317 174.955 351.927 174.955C352.867 174.955 353.597 175.2 354.117 175.69C354.637 176.17 354.897 176.85 354.897 177.73V181.045C354.897 181.345 355.037 181.495 355.317 181.495H355.992V182.5H354.957C354.627 182.5 354.362 182.41 354.162 182.23C353.962 182.04 353.862 181.79 353.862 181.48V181.405H353.682C353.572 181.595 353.422 181.795 353.232 182.005C353.052 182.205 352.802 182.37 352.482 182.5C352.162 182.64 351.747 182.71 351.237 182.71ZM351.372 181.69C352.072 181.69 352.637 181.485 353.067 181.075C353.507 180.655 353.727 180.07 353.727 179.32V179.155H351.297C350.827 179.155 350.437 179.26 350.127 179.47C349.827 179.67 349.677 179.975 349.677 180.385C349.677 180.795 349.832 181.115 350.142 181.345C350.462 181.575 350.872 181.69 351.372 181.69ZM357.615 182.5V172H358.8V182.5H357.615Z" fill="white"/>
<path d="M425 12L547 12L619 84" stroke="#CBCBCB" stroke-width="0.5"/>
<path d="M500 119H406L372 153" stroke="#B8B8B8" stroke-width="0.5"/>
<path d="M234 178H159L1 336" stroke="#BFBFBF" stroke-width="0.5"/>
<defs>
<linearGradient id="paint0_linear_173_1376" x1="396.347" y1="-8.39109e-06" x2="283.495" y2="26.7813" gradientUnits="userSpaceOnUse">
<stop stop-color="#03C1AD"/>
<stop offset="1" stop-color="#03AAC1"/>
</linearGradient>
<linearGradient id="paint1_linear_173_1376" x1="634.347" y1="107" x2="521.495" y2="133.781" gradientUnits="userSpaceOnUse">
<stop stop-color="#03C1AD"/>
<stop offset="1" stop-color="#03AAC1"/>
</linearGradient>
<linearGradient id="paint2_linear_173_1376" x1="371.347" y1="165" x2="258.495" y2="191.781" gradientUnits="userSpaceOnUse">
<stop stop-color="#03C1AD"/>
<stop offset="1" stop-color="#03AAC1"/>
</linearGradient>
</defs>
</svg>
