<svg width="191" height="21" viewBox="0 0 191 21" fill="none" xmlns="http://www.w3.org/2000/svg">
<g clip-path="url(#clip0_173_1324)">
<path d="M89.4914 4.34906C89.2338 4.32333 88.9504 4.27186 88.6671 4.27186C84.8417 4.27186 81.0163 4.27186 77.1908 4.27186C76.9075 4.27186 76.6241 4.27186 76.3536 4.22039C75.3103 3.9759 74.4731 3.21671 74.6148 1.87848C74.7307 0.746123 75.4778 0.0512695 76.6628 0.0512695C86.2971 0.0512695 95.9186 0.0512695 105.553 0.0512695C106.815 0.0512695 107.652 0.861931 107.704 2.07149C107.755 3.17811 106.893 4.14318 105.733 4.25899C105.192 4.31046 104.651 4.28473 104.11 4.28473C101.483 4.28473 98.8424 4.36193 96.2148 4.25899C94.3472 4.18178 93.5229 5.63583 93.2911 6.88399C93.2138 7.33436 93.2138 7.81046 93.2138 8.2737C93.2138 11.7866 93.1622 15.2994 93.2395 18.8252C93.2653 20.0605 92.0932 21.0513 91.1143 20.9998C89.9036 20.9483 89.0148 20.0605 89.0148 18.7866C89.0148 14.9005 88.9891 11.0145 89.0277 7.12848C89.0277 6.25348 89.2982 5.37848 89.4656 4.36193L89.4914 4.34906Z" fill="black"/>
<path d="M174.372 0.0255842C175.157 -0.000151085 175.685 0.373011 176.162 0.92632C178.274 3.39691 180.412 5.85463 182.538 8.31235C185.011 11.1818 187.484 14.0642 189.944 16.9337C190.214 17.2554 190.459 17.6028 190.704 17.9502C191.361 18.8638 190.755 20.0991 190.098 20.5623C189.145 21.2315 187.986 21.1157 187.226 20.2407C185.745 18.5679 184.289 16.8822 182.834 15.1965C180.412 12.4043 178.004 9.59911 175.57 6.80683C174.707 5.80316 173.947 5.85463 173.071 6.87117C171.061 9.21308 169.039 11.5421 167.017 13.8712C165.227 15.9557 163.436 18.0403 161.633 20.1248C160.564 21.3601 158.851 21.2443 158.014 19.8546C157.627 19.2112 157.756 18.1304 158.323 17.4612C159.74 15.7885 161.182 14.1285 162.599 12.4686C165.072 9.57338 167.545 6.67816 170.018 3.78294C170.881 2.77926 171.744 1.78845 172.607 0.784775C173.071 0.257202 173.637 -0.0644893 174.333 -0.000151085L174.372 0.0255842Z" fill="black"/>
<path d="M16.5121 0.0512735C17.285 -0.000197083 17.8259 0.360097 18.2767 0.887671C20.5308 3.4998 22.7977 6.11193 25.0517 8.73693C27.2156 11.2461 29.3794 13.7424 31.5175 16.2645C32.0456 16.895 32.5351 17.5641 32.9988 18.259C33.4624 18.9538 32.8442 20.2406 32.2259 20.6009C31.2599 21.1799 30.281 21.1413 29.5726 20.3822C28.349 19.0568 27.164 17.7057 25.9791 16.3417C23.622 13.6138 21.2778 10.8858 18.9336 8.15789C18.4957 7.65605 18.0578 7.14135 17.607 6.65238C16.9243 5.89318 16.0613 5.91892 15.3916 6.70385C13.0731 9.39318 10.7547 12.0697 8.43628 14.759C6.89066 16.5476 5.35792 18.3362 3.82518 20.1248C2.79476 21.3215 1.23626 21.2958 0.334651 20.0862C-0.141916 19.4428 -0.129035 18.2847 0.411932 17.6285C1.63555 16.1616 2.8978 14.7075 4.1343 13.2535C6.63305 10.3325 9.13181 7.41157 11.6434 4.49061C12.7254 3.24245 13.8202 1.99429 14.9021 0.758994C15.3272 0.270023 15.8553 -0.0130647 16.4864 0.0641411L16.5121 0.0512735Z" fill="black"/>
<path d="M45.6474 7.97808C47.9658 7.97808 50.2842 7.86228 52.5769 8.01669C54.612 8.15823 56.6342 8.55713 58.6435 8.93029C60.8331 9.32919 62.8682 10.1785 64.7616 11.3751C66.6034 12.5332 68.0846 14.0516 69.2954 15.8402C69.7719 16.5479 70.3773 17.2171 70.6349 18.002C71.0342 19.1601 70.9312 20.1251 69.5272 20.8329C68.69 21.2575 67.4535 20.8329 66.8997 19.9579C65.8821 18.3108 64.8131 16.7024 63.2288 15.5185C62.031 14.6307 60.7043 13.9744 59.2875 13.4854C55.9773 12.366 52.5512 12.1343 49.0993 12.0957C46.9483 12.0829 44.8102 12.0957 42.6592 12.0957C41.9121 12.0957 41.8606 12.1472 41.8606 12.8807C41.8606 14.8751 41.8091 16.8568 41.8735 18.8512C41.9121 20.0608 40.7014 21.0387 39.7611 20.9744C38.5633 20.9101 37.6746 20.0608 37.6746 18.8126C37.6746 15.8917 37.6746 12.9707 37.6874 10.0626C37.6874 8.71154 38.5375 7.90088 39.9028 7.90088C41.8091 7.90088 43.7025 7.90088 45.6087 7.90088C45.6087 7.92661 45.6087 7.93948 45.6087 7.96522L45.6474 7.97808Z" fill="black"/>
<path d="M139.157 16.805C143.112 16.805 147.066 16.8436 151.033 16.7792C152.218 16.7535 153.248 17.7958 153.248 18.8509C153.248 19.9318 152.218 20.9998 151.007 20.9869C144.387 20.9483 137.766 20.9741 131.133 20.9741C129.729 20.9741 128.338 20.9612 126.934 20.9741C124.204 21.0127 121.846 19.2884 120.855 16.8436C120.417 15.7627 120.288 14.5531 120.159 13.3822C120.043 12.3399 120.108 11.259 120.146 10.2039C120.172 9.27738 120.52 8.53106 121.421 8.08069C122.529 7.52738 124.139 8.1965 124.281 9.41893C124.435 10.7186 124.332 12.0568 124.435 13.3693C124.5 14.0899 124.667 14.8362 124.963 15.4925C125.389 16.4061 126.187 16.8178 127.23 16.8178C131.21 16.805 135.177 16.8178 139.157 16.8178V16.805Z" fill="black"/>
<path d="M136.775 0.0253906C141.489 0.0253906 146.216 0.0253906 150.93 0.0253906C151.587 0.0253906 152.154 0.141199 152.643 0.655905C153.261 1.29929 153.351 2.04561 153.12 2.83054C152.875 3.6412 152.218 4.0787 151.394 4.23311C151.123 4.28458 150.84 4.28458 150.556 4.28458C141.283 4.28458 132.009 4.28458 122.735 4.28458C122.053 4.28458 121.383 4.18164 120.868 3.69267C120.249 3.11363 119.902 2.20002 120.417 1.14488C120.79 0.372817 121.447 0.0253906 122.323 0.0382583C127.14 0.0382583 131.957 0.0382583 136.762 0.0382583L136.775 0.0253906Z" fill="black"/>
<path d="M52.2161 0.0384338C56.0802 0.0384338 59.9442 0.0255662 63.8083 0.0384338C66.7578 0.0513014 68.78 1.53108 70.1067 4.07887C70.6992 5.21123 70.8537 6.39505 70.7893 7.64321C70.7507 8.56968 70.0938 9.30314 69.102 9.50902C68.2777 9.6763 67.2215 9.17446 66.8995 8.42814C66.745 8.08071 66.6419 7.68182 66.6162 7.30865C66.526 6.06049 66.0237 5.08255 64.8902 4.51637C64.5553 4.3491 64.1432 4.29762 63.7696 4.29762C55.9643 4.29762 48.1718 4.29762 40.3664 4.27189C39.9027 4.27189 39.4261 4.13035 38.9624 4.0274C37.9707 3.80865 37.5199 2.44468 37.7259 1.7241C37.9836 0.797625 38.5245 0.0384338 39.8512 0.0384338C43.9728 0.0384338 48.0945 0.0384338 52.2161 0.0384338Z" fill="black"/>
<path d="M111.452 10.4872C111.452 7.68207 111.465 4.87692 111.452 2.05891C111.452 1.0681 112.045 0.411851 112.766 0.115895C113.564 -0.205796 114.646 0.0772925 115.136 0.759278C115.393 1.11957 115.6 1.59567 115.6 2.03317C115.625 7.64347 115.625 13.2666 115.612 18.8769C115.612 20.0994 114.698 20.9744 113.474 20.9615C112.315 20.9615 111.452 20.0607 111.439 18.8383C111.439 16.046 111.439 13.2666 111.439 10.4744L111.452 10.4872Z" fill="black"/>
<path d="M177.154 13.9742C177.308 15.5183 175.814 16.7922 174.41 16.7794C172.749 16.7665 171.538 15.4926 171.564 13.9614C171.59 12.34 172.646 11.2077 174.346 11.1305C175.763 11.0661 177.296 12.2242 177.167 13.9742H177.154Z" fill="black"/>
<path d="M19.346 14.0256C19.346 15.5954 18.1095 16.7793 16.5252 16.7664C14.9409 16.7535 13.6916 15.4925 13.7044 13.9226C13.7044 12.4429 15.0826 11.0789 16.5381 11.1175C18.0451 11.169 19.4232 12.3013 19.3331 14.0256H19.346Z" fill="black"/>
</g>
<defs>
<clipPath id="clip0_173_1324">
<rect width="191" height="21" fill="white"/>
</clipPath>
</defs>
</svg>
