<svg width="191" height="21" viewBox="0 0 191 21" fill="none" xmlns="http://www.w3.org/2000/svg">
<g clip-path="url(#clip0_21_17)">
<path d="M89.4914 4.34928C89.2338 4.32354 88.9504 4.27207 88.6671 4.27207C84.8417 4.27207 81.0163 4.27207 77.1908 4.27207C76.9075 4.27207 76.6241 4.27207 76.3536 4.2206C75.3103 3.97612 74.4731 3.21692 74.6148 1.87869C74.7307 0.746336 75.4778 0.0514832 76.6628 0.0514832C86.2971 0.0514832 95.9186 0.0514832 105.553 0.0514832C106.815 0.0514832 107.652 0.862145 107.704 2.0717C107.755 3.17832 106.893 4.1434 105.733 4.2592C105.192 4.31067 104.651 4.28494 104.11 4.28494C101.483 4.28494 98.8424 4.36215 96.2148 4.2592C94.3472 4.182 93.5229 5.63604 93.291 6.8842C93.2138 7.33457 93.2138 7.81068 93.2138 8.27391C93.2138 11.7868 93.1622 15.2996 93.2395 18.8254C93.2653 20.0607 92.0932 21.0515 91.1143 21C89.9036 20.9485 89.0148 20.0607 89.0148 18.7868C89.0148 14.9008 88.9891 11.0147 89.0277 7.12869C89.0277 6.25369 89.2982 5.37869 89.4656 4.36215L89.4914 4.34928Z" fill="white"/>
<path d="M174.372 0.0257368C175.157 1.50222e-06 175.685 0.373163 176.162 0.926472C178.274 3.39706 180.413 5.85478 182.538 8.3125C185.011 11.182 187.484 14.0643 189.944 16.9338C190.214 17.2555 190.459 17.6029 190.704 17.9504C191.361 18.864 190.755 20.0993 190.098 20.5625C189.145 21.2316 187.986 21.1158 187.226 20.2408C185.745 18.568 184.289 16.8824 182.834 15.1967C180.413 12.4044 178.004 9.59927 175.57 6.80699C174.707 5.80331 173.947 5.85478 173.071 6.87133C171.061 9.21324 169.039 11.5423 167.017 13.8713C165.227 15.9559 163.436 18.0404 161.633 20.125C160.564 21.3603 158.851 21.2445 158.014 19.8548C157.627 19.2114 157.756 18.1305 158.323 17.4614C159.74 15.7886 161.182 14.1287 162.599 12.4688C165.072 9.57353 167.545 6.67831 170.018 3.78309C170.881 2.77941 171.744 1.7886 172.607 0.784928C173.071 0.257354 173.638 -0.0643367 174.333 1.50222e-06L174.372 0.0257368Z" fill="white"/>
<path d="M16.5123 0.0514566C17.2851 -1.39773e-05 17.826 0.36028 18.2768 0.887854C20.5309 3.49999 22.7978 6.11212 25.0518 8.73712C27.2157 11.2463 29.3796 13.7426 31.5177 16.2647C32.0457 16.8952 32.5352 17.5643 32.9989 18.2592C33.4626 18.954 32.8443 20.2408 32.2261 20.6011C31.2601 21.1801 30.2812 21.1415 29.5728 20.3823C28.3491 19.057 27.1642 17.7059 25.9792 16.3419C23.6221 13.614 21.2779 10.886 18.9337 8.15807C18.4958 7.65624 18.0579 7.14153 17.6071 6.65256C16.9244 5.89337 16.0615 5.9191 15.3917 6.70403C13.0733 9.39337 10.7548 12.0698 8.4364 14.7592C6.89078 16.5478 5.35804 18.3364 3.8253 20.125C2.79488 21.3217 1.23638 21.2959 0.334773 20.0864C-0.141793 19.443 -0.128913 18.2849 0.412054 17.6287C1.63567 16.1617 2.89793 14.7077 4.13442 13.2537C6.63317 10.3327 9.13193 7.41175 11.6436 4.49079C12.7255 3.24263 13.8203 1.99447 14.9022 0.759177C15.3273 0.270207 15.8554 -0.0128816 16.4865 0.0643243L16.5123 0.0514566Z" fill="white"/>
<path d="M45.6473 7.97793C47.9658 7.97793 50.2842 7.86212 52.5769 8.01654C54.6119 8.15808 56.6341 8.55698 58.6434 8.93014C60.833 9.32904 62.8681 10.1783 64.7615 11.375C66.6034 12.5331 68.0846 14.0515 69.2953 15.8401C69.7719 16.5478 70.3772 17.2169 70.6348 18.0018C71.0341 19.1599 70.9311 20.125 69.5272 20.8327C68.6899 21.2573 67.4534 20.8327 66.8996 19.9577C65.8821 18.3107 64.813 16.7022 63.2288 15.5184C62.0309 14.6305 60.7042 13.9743 59.2874 13.4853C55.9772 12.3658 52.5511 12.1342 49.0992 12.0956C46.9482 12.0827 44.8101 12.0956 42.6591 12.0956C41.9121 12.0956 41.8606 12.1471 41.8606 12.8805C41.8606 14.875 41.809 16.8566 41.8734 18.8511C41.9121 20.0607 40.7013 21.0386 39.7611 20.9743C38.5632 20.9099 37.6745 20.0607 37.6745 18.8125C37.6745 15.8915 37.6745 12.9706 37.6874 10.0625C37.6874 8.71139 38.5375 7.90073 39.9028 7.90073C41.809 7.90073 43.7024 7.90073 45.6087 7.90073C45.6087 7.92646 45.6087 7.93933 45.6087 7.96506L45.6473 7.97793Z" fill="white"/>
<path d="M139.157 16.8051C143.112 16.8051 147.066 16.8437 151.033 16.7794C152.218 16.7537 153.248 17.7959 153.248 18.8511C153.248 19.932 152.218 21 151.007 20.9871C144.387 20.9485 137.766 20.9743 131.133 20.9743C129.729 20.9743 128.338 20.9614 126.934 20.9743C124.203 21.0129 121.846 19.2886 120.855 16.8437C120.417 15.7629 120.288 14.5533 120.159 13.3823C120.043 12.3401 120.108 11.2592 120.146 10.204C120.172 9.27757 120.52 8.53124 121.421 8.08088C122.529 7.52757 124.139 8.19668 124.281 9.41911C124.435 10.7187 124.332 12.057 124.435 13.3695C124.5 14.0901 124.667 14.8364 124.963 15.4926C125.388 16.4062 126.187 16.818 127.23 16.818C131.21 16.8051 135.177 16.818 139.157 16.818V16.8051Z" fill="white"/>
<path d="M52.2162 0.0386169C56.0802 0.0386169 59.9443 0.0257493 63.8083 0.0386169C66.7579 0.0514845 68.7801 1.53126 70.1068 4.07906C70.6992 5.21141 70.8538 6.39523 70.7894 7.6434C70.7508 8.56987 70.0939 9.30332 69.1021 9.5092C68.2778 9.67648 67.2216 9.17465 66.8996 8.42832C66.745 8.0809 66.642 7.682 66.6162 7.30884C66.5261 6.06068 66.0237 5.08273 64.8903 4.51656C64.5554 4.34928 64.1432 4.29781 63.7697 4.29781C55.9643 4.29781 48.1718 4.29781 40.3664 4.27207C39.9028 4.27207 39.4262 4.13053 38.9625 4.02759C37.9707 3.80884 37.5199 2.44487 37.726 1.72428C37.9836 0.797808 38.5246 0.0386169 39.8512 0.0386169C43.9729 0.0386169 48.0945 0.0386169 52.2162 0.0386169Z" fill="white"/>
<path d="M136.774 0.0257263C141.489 0.0257263 146.216 0.0257263 150.93 0.0257263C151.587 0.0257263 152.153 0.141535 152.643 0.656241C153.261 1.29962 153.351 2.04595 153.119 2.83087C152.875 3.64154 152.218 4.07904 151.393 4.23345C151.123 4.28492 150.84 4.28492 150.556 4.28492C141.283 4.28492 132.009 4.28492 122.735 4.28492C122.052 4.28492 121.383 4.18198 120.867 3.69301C120.249 3.11396 119.901 2.20036 120.417 1.14521C120.79 0.373153 121.447 0.0257263 122.323 0.038594C127.14 0.038594 131.957 0.038594 136.762 0.038594L136.774 0.0257263Z" fill="white"/>
<path d="M111.452 10.4871C111.452 7.68198 111.465 4.87683 111.452 2.05882C111.452 1.06801 112.045 0.41176 112.766 0.115804C113.564 -0.205887 114.646 0.0772009 115.136 0.759186C115.393 1.11948 115.6 1.59558 115.6 2.03308C115.625 7.64338 115.625 13.2665 115.612 18.8768C115.612 20.0993 114.698 20.9743 113.474 20.9614C112.315 20.9614 111.452 20.0607 111.439 18.8382C111.439 16.046 111.439 13.2665 111.439 10.4743L111.452 10.4871Z" fill="white"/>
<path d="M177.154 13.9743C177.308 15.5184 175.814 16.7923 174.41 16.7794C172.749 16.7665 171.538 15.4926 171.564 13.9614C171.59 12.3401 172.646 11.2077 174.346 11.1305C175.763 11.0662 177.296 12.2243 177.167 13.9743H177.154Z" fill="white"/>
<path d="M19.346 14.0257C19.346 15.5956 18.1095 16.7794 16.5253 16.7665C14.941 16.7537 13.6916 15.4927 13.7045 13.9228C13.7045 12.443 15.0827 11.079 16.5381 11.1177C18.0451 11.1691 19.4233 12.3015 19.3331 14.0257H19.346Z" fill="white"/>
</g>
<defs>
<clipPath id="clip0_21_17">
<rect width="191" height="21" fill="white"/>
</clipPath>
</defs>
</svg>
